<svg xmlns="http://www.w3.org/2000/svg" xmlns:xlink="http://www.w3.org/1999/xlink" width="571.886" height="279" viewBox="0 0 571.886 279">
  <defs>
    <filter id="Union_1" x="0" y="1.511" width="571.886" height="277.489" filterUnits="userSpaceOnUse">
      <feOffset dy="10" input="SourceAlpha"/>
      <feGaussianBlur stdDeviation="5" result="blur"/>
      <feFlood flood-color="#3a7bb4" flood-opacity="0.745"/>
      <feComposite operator="in" in2="blur"/>
      <feComposite in="SourceGraphic"/>
    </filter>
  </defs>
  <g id="bulle_dates" data-name="bulle dates" transform="translate(-830.5 -338.453)">
    <g transform="matrix(1, 0, 0, 1, 830.5, 338.45)" filter="url(#Union_1)">
      <path id="Union_1-2" data-name="Union 1" d="M228.871,206.789H0V0H541.886V206.789h-278.2l43.189,40.7Z" transform="translate(15 6.51)" fill="#fff"/>
    </g>
    <g id="TACHE_LOGO" data-name="TACHE LOGO" transform="translate(1152.993 361.355)" opacity="0.8">
      <g id="Groupe_20" data-name="Groupe 20" transform="translate(0 0)">
        <g id="Groupe_17" data-name="Groupe 17" transform="translate(0 45.591)" opacity="0.58">
          <g id="Groupe_16" data-name="Groupe 16">
            <path id="Tracé_45" data-name="Tracé 45" d="M99.062,67.444c-48.471-37.532-147.543,59.483-70.988,82.5s145.95-35.365,137.959-65.812C154.5,40.184,131.24,92.36,99.062,67.444" transform="translate(0 -58.907)" fill="#d7e2f4"/>
          </g>
        </g>
        <g id="Groupe_19" data-name="Groupe 19" transform="translate(105.024)" opacity="0.34">
          <g id="Groupe_18" data-name="Groupe 18">
            <path id="Tracé_46" data-name="Tracé 46" d="M138.589,11.853c17.1-21.738,45.309-11.924,40.081,16s-55.376,10.923-40.081-16" transform="translate(-135.699 0)" fill="#d7e2f4"/>
          </g>
        </g>
      </g>
    </g>
    <text id="_14_18_Janvier_2021" data-name="14  &amp; 18 Janvier 2021" transform="translate(880.533 425.453)" fill="#f90" font-size="75" font-family="SirinStencil-Regular, SirinStencil"><tspan x="0" y="0">14 </tspan><tspan y="0" letter-spacing="-0.2em"> </tspan><tspan y="0" fill="#094f99" font-size="49" font-family="GothamRounded-MediumItalic, Gotham Rounded" font-weight="500" font-style="italic">&amp;</tspan><tspan y="0" letter-spacing="-0.15em"> </tspan><tspan y="0">18 </tspan><tspan y="0" fill="#094f99" font-size="55">Janvier 2021</tspan></text>
    <rect id="Rectangle_3136" data-name="Rectangle 3136" width="304" height="20" transform="translate(881.533 461.453)" fill="#fff473"/>
    <text id="Format_webinaire_CONFERASMUS" data-name="Format webinaire
#CONFERASMUS" transform="translate(888.533 470.453)" fill="#094f99" font-size="31" font-family="GothamRounded-Medium, Gotham Rounded" font-weight="500"><tspan x="0" y="0">Format webinaire</tspan><tspan font-size="25"><tspan x="0" y="45">#CONFERASMUS</tspan></tspan></text>
  </g>
</svg>
