<svg xmlns="http://www.w3.org/2000/svg" xmlns:xlink="http://www.w3.org/1999/xlink" width="168.288" height="215.012" viewBox="0 0 168.288 215.012">
  <defs>
    <clipPath id="clip-path">
      <path id="SVGID" d="M-743.3,1529.583l145.553-84.137-1.314,85.113-144.243,83.28Z" transform="translate(743.303 -1445.446)" fill="none"/>
    </clipPath>
    <clipPath id="clip-path-2">
      <path id="SVGID-2" data-name="SVGID" d="M-558.96,1670.759l8.533-18.309-19.833-39.077-5.586,38.915Z" transform="translate(575.846 -1613.372)" fill="#f49e26"/>
    </clipPath>
  </defs>
  <g id="picto_conference" data-name="picto conference" transform="translate(775.598 -1419.707)">
    <g id="Groupe_13914" data-name="Groupe 13914" transform="translate(-737.837 1566.301)">
      <g id="Groupe_13913" data-name="Groupe 13913" transform="translate(0)" style="isolation: isolate">
        <g id="Groupe_13910" data-name="Groupe 13910" transform="translate(0 42.595)">
          <path id="Tracé_46453" data-name="Tracé 46453" d="M-700.317,1796.878l.016,6.053,34.03,19.77-.012-6.048Z" transform="translate(700.317 -1796.878)" fill="#4881ff"/>
        </g>
        <g id="Groupe_13911" data-name="Groupe 13911" transform="translate(34.034 19.777)">
          <path id="Tracé_46454" data-name="Tracé 46454" d="M-632.466,1793.981l.012,6.048,73.776-42.582-.015-6.058Z" transform="translate(632.466 -1751.388)" fill="#c3dff4"/>
        </g>
        <g id="Groupe_13912" data-name="Groupe 13912">
          <path id="Tracé_46455" data-name="Tracé 46455" d="M-700.317,1754.555l34.034,19.775,73.773-42.593-34.034-19.777Z" transform="translate(700.317 -1711.96)" fill="#85a9ff"/>
        </g>
      </g>
    </g>
    <path id="Tracé_46456" data-name="Tracé 46456" d="M-657.91,1795.029l-27.569-1.849,21.447-12.388Z" transform="translate(-44.915 -179.965)" fill="#4881ff"/>
    <g id="Groupe_13920" data-name="Groupe 13920" transform="translate(-709.815 1538.29)">
      <g id="Groupe_13919" data-name="Groupe 13919" transform="translate(0 0)" style="isolation: isolate">
        <g id="Groupe_13915" data-name="Groupe 13915" transform="translate(0 23.169)">
          <path id="Tracé_46457" data-name="Tracé 46457" d="M-633.279,1706.359l-6.975-4.051-4.2,49.55,6.99,4.055Z" transform="translate(644.453 -1702.308)" fill="#85a9ff"/>
        </g>
        <g id="Groupe_13916" data-name="Groupe 13916" transform="translate(4.199)">
          <path id="Tracé_46458" data-name="Tracé 46458" d="M-588.973,1660.179l-6.981-4.062-40.128,23.169,6.975,4.051Z" transform="translate(636.082 -1656.117)" fill="#85a9ff"/>
        </g>
        <g id="Groupe_13917" data-name="Groupe 13917" transform="translate(6.99 4.062)">
          <path id="Tracé_46459" data-name="Tracé 46459" d="M-626.334,1687.374l-4.184,49.553L-583.2,1709.6l-3-45.387Z" transform="translate(630.517 -1664.215)" fill="#8ebed6"/>
        </g>
        <g id="Groupe_13918" data-name="Groupe 13918" transform="translate(6.99 4.062)">
          <path id="Tracé_46460" data-name="Tracé 46460" d="M-599.788,1701.421l-30.729,35.506L-583.2,1709.6l-3-45.387Z" transform="translate(630.517 -1664.215)" fill="#c0ddff"/>
        </g>
      </g>
    </g>
    <g id="Groupe_13921" data-name="Groupe 13921" transform="translate(-775.326 1517.247)">
      <path id="Tracé_46461" data-name="Tracé 46461" d="M-607.07,1619.138l-8.547-4.973-159.44,92.057,8.539,4.959Z" transform="translate(775.056 -1614.165)" fill="#dcc9a0"/>
    </g>
    <g id="Groupe_13922" data-name="Groupe 13922" transform="translate(-622.383 1427.651)">
      <path id="Tracé_46462" data-name="Tracé 46462" d="M-461.6,1440.511l-8.541-4.966.249,86.043,8.547,4.961Z" transform="translate(470.145 -1435.545)" fill="#584245"/>
    </g>
    <g id="Groupe_13923" data-name="Groupe 13923" transform="translate(-767.942 1513.695)">
      <path id="Tracé_46463" data-name="Tracé 46463" d="M-605.981,1612.044l-8.547-4.96-145.808,84.171,8.547,4.964Z" transform="translate(760.335 -1607.083)" fill="#62494d"/>
    </g>
    <g id="Groupe_13924" data-name="Groupe 13924" transform="translate(-766.787 1522.22)">
      <path id="Tracé_46464" data-name="Tracé 46464" d="M-758.033,1716.122l.041,11.962c0,4.384,3.108,6.179,6.947,3.969L-605.455,1648a15.258,15.258,0,0,0,6.9-11.959l-.029-11.959Z" transform="translate(758.033 -1624.079)" fill="#add3ea"/>
    </g>
    <g id="Groupe_13925" data-name="Groupe 13925" transform="translate(-759.641 1432.617)">
      <path id="Tracé_46465" data-name="Tracé 46465" d="M-743.785,1529.626l.245,86.033,145.807-84.175-.254-86.038Z" transform="translate(743.785 -1445.446)" fill="#5c8fc6"/>
    </g>
    <path id="Tracé_46466" data-name="Tracé 46466" d="M-743.543,1614.736l144.243-83.28-.25-84.208-144.234,83.276Z" transform="translate(-15.856 -13.727)" fill="#f3faff"/>
    <g id="Groupe_13926" data-name="Groupe 13926" transform="translate(-768.18 1511.826)">
      <path id="Tracé_46467" data-name="Tracé 46467" d="M-752.27,1608.329l-8.539-4.971.238,86.04,8.547,4.964Z" transform="translate(760.809 -1603.358)" fill="#82b3b8"/>
    </g>
    <g id="Groupe_13927" data-name="Groupe 13927" transform="translate(-768.18 1427.651)">
      <path id="Tracé_46468" data-name="Tracé 46468" d="M-606.471,1440.511l-8.541-4.966-145.8,84.175,8.539,4.971Z" transform="translate(760.809 -1435.545)" fill="#92c8ce"/>
    </g>
    <g id="Groupe_13928" data-name="Groupe 13928" transform="translate(-775.598 1516.022)">
      <path id="Tracé_46469" data-name="Tracé 46469" d="M-767.051,1616.688l-8.547-4.966.267,105.159a3.548,3.548,0,0,0,1.465,2.863l8.6,6.239Z" transform="translate(775.598 -1611.722)" fill="#85a9ff"/>
    </g>
    <g id="Groupe_13929" data-name="Groupe 13929" transform="translate(-768.687 1419.707)">
      <path id="Tracé_46470" data-name="Tracé 46470" d="M-603.43,1424.021l-6.435-3.74a4.236,4.236,0,0,0-4.219-.023l-147.737,83.8,8.536,4.961Z" transform="translate(761.82 -1419.707)" fill="#c3dff4"/>
    </g>
    <path id="Tracé_46471" data-name="Tracé 46471" d="M-606.073,1429.254c3.841-2.2,6.947-.435,6.964,3.966l.262,93.286L-758.3,1618.549l-.264-93.275a15.2,15.2,0,0,1,6.9-11.966ZM-750.9,1607.117l145.807-84.175-.254-86.038-145.8,84.18.245,86.033Z" transform="translate(-8.492 -4.286)" fill="#e3f1fe"/>
    <path id="Tracé_46472" data-name="Tracé 46472" d="M-775.6,1599.838c0-.1,0-.208.008-.313s.005-.222.018-.344c.007-.105.017-.22.029-.334s.016-.226.023-.34c.023-.115.048-.234.069-.348v-.025c.017-.112.039-.212.054-.323s.052-.241.072-.366.05-.236.088-.366a2.442,2.442,0,0,1,.092-.361c.026-.1.055-.2.085-.293,0,0,.005,0,.005-.007a.441.441,0,0,0,.013-.071c.05-.117.081-.236.125-.355s.07-.236.114-.357.087-.22.135-.332.089-.228.136-.338a2.627,2.627,0,0,0,.1-.247.023.023,0,0,1,.013-.025.081.081,0,0,1,.024-.06c.042-.114.107-.217.142-.332.074-.124.124-.247.186-.361.065-.144.14-.279.2-.423.092-.155.179-.316.271-.468,0,0,.008-.016.015-.016.022-.043.041-.077.059-.119l.015.005h0l0-.005c.156-.272.332-.545.511-.815.136-.2.272-.41.415-.595.011-.023.026-.034.031-.05.1-.126.2-.256.3-.377.084-.11.175-.229.264-.328s.173-.217.262-.316l.274-.3a.58.58,0,0,1,.052-.046c.005-.01.024-.025.029-.039.067-.069.135-.142.2-.208.1-.1.2-.192.286-.292.1-.089.2-.192.312-.287s.2-.176.311-.261c.054-.043.1-.092.157-.13a.084.084,0,0,1,.034-.026c.045-.029.085-.07.115-.093.108-.078.208-.158.3-.238s.205-.147.307-.213a3.555,3.555,0,0,1,.3-.2c.088-.062.188-.12.287-.179a.417.417,0,0,0,.072-.041l8.536,4.961a10.041,10.041,0,0,0-1.369.959c-.014.012-.035.027-.053.043a12.8,12.8,0,0,0-1.251,1.169.114.114,0,0,0-.027.034,14.537,14.537,0,0,0-1.158,1.391v.009a.013.013,0,0,0-.015.014,17.507,17.507,0,0,0-1,1.526.061.061,0,0,0-.02.051,15.661,15.661,0,0,0-1.459,3.349s-.013.011-.013.018a13.278,13.278,0,0,0-.392,1.7c0,.01,0,.021-.005.025v.008a11.005,11.005,0,0,0-.133,1.673Z" transform="translate(0 -83.816)" fill="#c3dff4"/>
    <g id="Groupe_13930" data-name="Groupe 13930" transform="translate(-679.166 1567.576)">
      <path id="Tracé_46473" data-name="Tracé 46473" d="M-579.827,1714.991c1.961-1.137,3.538-.218,3.548,2.012a7.768,7.768,0,0,1-3.525,6.111c-1.953,1.134-3.537.217-3.544-2.03A7.769,7.769,0,0,1-579.827,1714.991Z" transform="translate(583.348 -1714.502)" fill="#476f99"/>
    </g>
    <g id="Groupe_13931" data-name="Groupe 13931" transform="translate(-679.166 1567.573)">
      <path id="Tracé_46474" data-name="Tracé 46474" d="M-580,1714.958c1.866-1.076,3.37-.2,3.37,1.917a7.366,7.366,0,0,1-3.345,5.817c-1.861,1.076-3.367.2-3.375-1.936A7.391,7.391,0,0,1-580,1714.958Z" transform="translate(583.348 -1714.497)" fill="#85a9ff"/>
    </g>
    <g id="Groupe_13939" data-name="Groupe 13939" transform="translate(-759.395 1433.632)">
      <g id="Groupe_13932" data-name="Groupe 13932" transform="translate(4.561 82.672)">
        <path id="Tracé_46475" data-name="Tracé 46475" d="M-731.518,1612.657c1.484-.859,2.7-.181,2.7,1.539a5.933,5.933,0,0,1-2.686,4.653c-1.488.851-2.7.164-2.7-1.546A5.876,5.876,0,0,1-731.518,1612.657Z" transform="translate(734.203 -1612.285)" fill="#ff66a8"/>
      </g>
      <g id="Groupe_13933" data-name="Groupe 13933" transform="translate(11.354 78.749)">
        <path id="Tracé_46476" data-name="Tracé 46476" d="M-717.979,1604.837c1.49-.859,2.7-.187,2.708,1.532a5.928,5.928,0,0,1-2.684,4.653c-1.485.854-2.7.165-2.706-1.539A5.913,5.913,0,0,1-717.979,1604.837Z" transform="translate(720.661 -1604.464)" fill="#ffb420"/>
      </g>
      <g id="Groupe_13934" data-name="Groupe 13934" transform="translate(18.164 74.819)">
        <path id="Tracé_46477" data-name="Tracé 46477" d="M-704.4,1597c1.482-.852,2.679-.176,2.687,1.55a5.9,5.9,0,0,1-2.669,4.638c-1.5.867-2.7.171-2.705-1.536A5.88,5.88,0,0,1-704.4,1597Z" transform="translate(707.084 -1596.63)" fill="#70a6c5"/>
      </g>
      <g id="Groupe_13935" data-name="Groupe 13935" transform="translate(130.099 12.423)">
        <path id="Tracé_46478" data-name="Tracé 46478" d="M-475.132,1472.235l0,1.619-8.8,5.08,0-1.621Z" transform="translate(483.928 -1472.235)" fill="#70a6c5"/>
      </g>
      <g id="Groupe_13936" data-name="Groupe 13936" transform="translate(130.087 9.327)">
        <path id="Tracé_46479" data-name="Tracé 46479" d="M-475.152,1466.063l.005,1.621-8.8,5.08-.007-1.623Z" transform="translate(483.951 -1466.063)" fill="#70a6c5"/>
      </g>
      <g id="Groupe_13937" data-name="Groupe 13937" transform="translate(130.078 6.236)">
        <path id="Tracé_46480" data-name="Tracé 46480" d="M-475.169,1459.9l0,1.618-8.8,5.078,0-1.618Z" transform="translate(483.969 -1459.901)" fill="#70a6c5"/>
      </g>
      <g id="Groupe_13938" data-name="Groupe 13938">
        <path id="Tracé_46481" data-name="Tracé 46481" d="M-743.3,1530.591l143.965-83.123.043,14.754-143.972,83.121Zm14.06,2.184a5.928,5.928,0,0,0,2.684-4.653c-.006-1.719-1.218-2.391-2.708-1.532a5.913,5.913,0,0,0-2.682,4.646c.005,1.7,1.221,2.393,2.706,1.539Zm-6.8,3.929a5.932,5.932,0,0,0,2.686-4.653c-.006-1.719-1.22-2.4-2.7-1.539a5.877,5.877,0,0,0-2.685,4.646c0,1.71,1.214,2.4,2.7,1.545Zm13.606-7.86a5.9,5.9,0,0,0,2.67-4.638c-.008-1.726-1.205-2.4-2.687-1.551a5.881,5.881,0,0,0-2.688,4.653c.008,1.706,1.207,2.4,2.705,1.536Zm118.012-73.521,0-1.618-8.8,5.078,0,1.618,8.8-5.078Zm.018,6.189,0-1.62-8.8,5.078v1.621l8.8-5.08Zm-.008-3.094,0-1.621-8.8,5.078.007,1.623,8.8-5.08Z" transform="translate(743.296 -1447.468)" fill="#4267c5"/>
      </g>
    </g>
    <g id="Groupe_13946" data-name="Groupe 13946" transform="translate(-759.399 1432.617)">
      <g id="Groupe_13945" data-name="Groupe 13945" transform="translate(0 0)" clip-path="url(#clip-path)">
        <g id="Groupe_13944" data-name="Groupe 13944" transform="translate(38.034 53.292)">
          <path id="Tracé_46482" data-name="Tracé 46482" d="M-665.152,2027.546s-3.15,6.536,1.578,8.543c4.706,2.036,4.706-1.117,13.474,6.073,8.751,7.178,16.656,4.174,17.921,2.708.938-1.092,1.024-8.264-18.452-18.143Z" transform="translate(666.832 -1788.448)" fill="#5bb0ff"/>
          <path id="Tracé_46483" data-name="Tracé 46483" d="M-663.582,2038.117c4.706,2.036,4.706-1.117,13.48,6.073,8.751,7.178,16.668,4.174,17.915,2.708a1.448,1.448,0,0,0,.3-.9c-8.178,2.921-12.619-1.176-16.207-3.936-3.693-2.856-6.836-3.989-12.444-5.182s-3.562-5.557-3.562-5.557a2.6,2.6,0,0,0-1.529-.528C-666.307,2032.786-667.034,2036.651-663.582,2038.117Z" transform="translate(666.84 -1790.477)" fill="#3d93ff"/>
          <path id="Tracé_46484" data-name="Tracé 46484" d="M-578.711,2001.492s-2.633,6.745,2.226,8.395,4.613-1.49,13.916,4.993c9.294,6.465,16.941,2.838,18.093,1.3.852-1.146.382-8.317-19.806-16.641Z" transform="translate(623.592 -1774.898)" fill="#5bb0ff"/>
          <path id="Tracé_46485" data-name="Tracé 46485" d="M-576.466,2013.073c4.859,1.651,4.6-1.49,13.9,4.993,9.3,6.465,16.958,2.838,18.093,1.3a1.467,1.467,0,0,0,.229-.908c-7.941,3.544-12.661-.2-16.475-2.677-3.912-2.535-7.1-3.413-12.8-4.191s-3.978-5.254-3.978-5.254a2.526,2.526,0,0,0-1.565-.4C-579.58,2007.937-580.022,2011.868-576.466,2013.073Z" transform="translate(623.585 -1778.084)" fill="#3d93ff"/>
          <path id="Tracé_46486" data-name="Tracé 46486" d="M-575.749,1734.135s3.022,48.527,2.554,66.207c-.463,17.7,2.312,51.187-.508,67.726-.906,5.332-21.225,6.887-22.314,1.046-3.021-16.22-.284-53.888-.284-53.888l-9.286-68.4S-586.244,1747.422-575.749,1734.135Z" transform="translate(636.632 -1642.62)" fill="#005198"/>
          <path id="Tracé_46487" data-name="Tracé 46487" d="M-616.926,1768.435s-10.4,51.781-14.39,68.908c-4.008,17.151-6.154,45.761-13.289,63.9-2,5.064-22.536,3.117-22.833-2.131-.869-15.026,12.708-57.059,12.708-57.059l2.46-64.443S-629.885,1778.961-616.926,1768.435Z" transform="translate(667.479 -1659.716)" fill="#005198"/>
          <path id="Tracé_46488" data-name="Tracé 46488" d="M-667.439,1907.634c-.869-15.026,12.708-57.059,12.708-57.059l2.46-64.443a72.36,72.36,0,0,0,12.414-.594l8.627,4.927a32.112,32.112,0,0,0-10.971,17.84c-2.852,12.052-7.516,40.43-10.247,48.955-2.232,7.047-10,41.208-12.69,53.075C-666.5,1909.575-667.37,1908.661-667.439,1907.634Z" transform="translate(667.479 -1668.24)" fill="#223a7a"/>
          <g id="Groupe_13941" data-name="Groupe 13941" transform="translate(45.963 30.94)">
            <g id="Groupe_13940" data-name="Groupe 13940" clip-path="url(#clip-path-2)">
              <path id="Tracé_46489" data-name="Tracé 46489" d="M-579.975,1627.292s4.63-6.721,9.875-.914,14.53,33.169,17.514,35.17c1.472,1,24.967-1.276,24.967-1.276s-3.307,3.681,1.757,10.181c0,0-30,11.631-35.469,5.611C-570.708,1665.727-583.6,1638.293-579.975,1627.292Z" transform="translate(578.216 -1618.677)" fill="#f49e26"/>
            </g>
          </g>
          <path id="Tracé_46490" data-name="Tracé 46490" d="M-639.221,1637.853c.932-.683,30.857-17.353,34.68-14.486,3.841,2.879,12.654,16.783,10.018,37.153-1.9,14.681,1.389,36.772,1.389,36.772s-29.784,22.637-47.45,7.849l1.357-11.1C-635.557,1663.915-651.682,1646.787-639.221,1637.853Z" transform="translate(655.792 -1587.248)" fill="#fed530"/>
          <g id="Groupe_13942" data-name="Groupe 13942" transform="translate(18.086)">
            <path id="Tracé_46491" data-name="Tracé 46491" d="M-594.793,1614.046s-1.493,7.664.282,11.636-3.817,5.824-7.542,4.832c-3.619-.967-8.854-4.369-7.38-6.566,2.856-4.287,1.713-10.508-.039-13.5C-611.219,1607.491-594.793,1614.046-594.793,1614.046Z" transform="translate(620.59 -1580.593)" fill="#f79f7c"/>
            <path id="Tracé_46492" data-name="Tracé 46492" d="M-615.722,1568.632s-7.246,5.231-4.675,14.3c1.413,5.04,6.59,11.054,9.932,13.565,3.363,2.511,11.274,8.917,14.571,2.82s6.9-23.581-.745-31.151S-615.722,1568.632-615.722,1568.632Z" transform="translate(626.202 -1558.285)" fill="#ffaa83"/>
            <path id="Tracé_46493" data-name="Tracé 46493" d="M-601.084,1565.064a23.051,23.051,0,0,1-15.055,6.18c-7.451.327-4.355,3.639-3.634,4.719.617.909,2.651,6.068.044,3.621-1.006-.932-3.45-3.152-4.132-1.116-.664,2.03,4.922,6.97,5.13,8.674.166,1.247-12.9-9.362-12.69-18.98s7.481-19.6,20.152-15.548c9.125,2.9,7.867,2.932,10.71,4.761C-598.028,1559-597.913,1562.256-601.084,1565.064Z" transform="translate(631.423 -1551.689)" fill="#3a2528"/>
            <path id="Tracé_46494" data-name="Tracé 46494" d="M-609.831,1599.279s4.734,9.974,11.271,12.366c6.035,2.2,8.294-.071,10.333-2.838,0,0-.074,9.968-5.812,10.164-4.159.161-11.256-1.051-13.655-6.631-1.06-2.47.409-7.463-2.084-9.279S-609.831,1599.279-609.831,1599.279Z" transform="translate(621.193 -1575.408)" fill="#3a2528"/>
          </g>
          <g id="Groupe_13943" data-name="Groupe 13943" transform="translate(10.85 52.37)">
            <path id="Tracé_46495" data-name="Tracé 46495" d="M-535.74,1732.4s15.374-.546,16.228-9.647c.095-1.1-.715-1.454-4.236-.1-2.312.9-3.556,2.3-5.141,1.288-1.8-1.187,1.146-3.953-.267-4.713-1.368-.766-8.341,4.2-8.341,4.2l-2.425,1.377.161,8.217Z" transform="translate(593.055 -1687.52)" fill="#f49e26"/>
            <path id="Tracé_46496" data-name="Tracé 46496" d="M-644.948,1659.477c1.042-2.262,5.29-6.1,10.7-.427,5.42,5.64,15.445,32.753,18.482,34.695,1.508.92,24.916-1.977,24.916-1.977s-3.194,3.764,2.043,10.1c0,0-29.681,12.48-35.3,6.59C-633.757,1698.38-649.824,1670-644.948,1659.477Z" transform="translate(645.848 -1656.095)" fill="#f49e26"/>
          </g>
        </g>
      </g>
    </g>
  </g>
</svg>
