<svg xmlns="http://www.w3.org/2000/svg" xmlns:xlink="http://www.w3.org/1999/xlink" width="127.222" height="229.964" viewBox="0 0 127.222 229.964">
  <defs>
    <linearGradient id="linear-gradient" y1="0.5" x2="1" y2="0.5" gradientUnits="objectBoundingBox">
      <stop offset="0" stop-color="#f3f5f8"/>
      <stop offset="1" stop-color="#cad1ed"/>
    </linearGradient>
  </defs>
  <g id="Groupe_15267" data-name="Groupe 15267" transform="translate(-4351.4 -3267)">
    <path id="Tracé_47033" data-name="Tracé 47033" d="M-1384.14,1557.511l-2.108-1.217a2.659,2.659,0,0,1-1.2-2.083V1398.052a2.657,2.657,0,0,1,1.2-2.083l96.878-55.932a2.659,2.659,0,0,1,2.406,0l2.108,1.217a2.657,2.657,0,0,1,1.2,2.083V1499.5a2.658,2.658,0,0,1-1.2,2.083l-96.877,55.932A2.658,2.658,0,0,1-1384.14,1557.511Z" transform="translate(5738.851 1927.25)" fill="#27debf"/>
    <path id="Tracé_47034" data-name="Tracé 47034" d="M-1384.14,1557.511l-2.108-1.217a2.659,2.659,0,0,1-1.2-2.083V1398.052a2.657,2.657,0,0,1,1.2-2.083l96.878-55.932a2.659,2.659,0,0,1,2.406,0l2.108,1.217a2.657,2.657,0,0,1,1.2,2.083V1499.5a2.658,2.658,0,0,1-1.2,2.083l-96.877,55.932A2.658,2.658,0,0,1-1384.14,1557.511Z" transform="translate(5738.851 1927.25)" fill="#e3f1fe"/>
    <path id="Tracé_47035" data-name="Tracé 47035" d="M-1283.461,1343.142c-.083-.622-.589-.85-1.189-.5l-96.878,55.933a2.451,2.451,0,0,0-.85.894l-4.516-2.6a2.49,2.49,0,0,1,.85-.895l96.878-55.932a2.66,2.66,0,0,1,2.406,0l2.111,1.216A2.7,2.7,0,0,1-1283.461,1343.142Z" transform="translate(5738.644 1927.25)" fill="#27debf"/>
    <path id="Tracé_47036" data-name="Tracé 47036" d="M-1283.461,1343.142c-.083-.622-.589-.85-1.189-.5l-96.878,55.933a2.451,2.451,0,0,0-.85.894l-4.516-2.6a2.49,2.49,0,0,1,.85-.895l96.878-55.932a2.66,2.66,0,0,1,2.406,0l2.111,1.216A2.7,2.7,0,0,1-1283.461,1343.142Z" transform="translate(5738.644 1927.25)" fill="#c3dff4"/>
    <path id="Tracé_47037" data-name="Tracé 47037" d="M-1381.946,1591.331a.2.2,0,0,1-.072.028.78.78,0,0,1-.123.045l-.05.016c-.072.023-.145.039-.223.056h-.028a2.714,2.714,0,0,1-1.433-.117,2,2,0,0,1-.267-.122l-2.111-1.217a2.674,2.674,0,0,1-1.2-2.083V1431.776a2.48,2.48,0,0,1,.35-1.188l4.516,2.6a2.434,2.434,0,0,0-.355,1.189v156.16a1,1,0,0,0,.184.634.627.627,0,0,0,.644.2A.922.922,0,0,0-1381.946,1591.331Z" transform="translate(5738.851 1897.526)" fill="#27debf"/>
    <path id="Tracé_47038" data-name="Tracé 47038" d="M-1381.946,1591.331a.2.2,0,0,1-.072.028.78.78,0,0,1-.123.045l-.05.016c-.072.023-.145.039-.223.056h-.028a2.714,2.714,0,0,1-1.433-.117,2,2,0,0,1-.267-.122l-2.111-1.217a2.674,2.674,0,0,1-1.2-2.083V1431.776a2.48,2.48,0,0,1,.35-1.188l4.516,2.6a2.434,2.434,0,0,0-.355,1.189v156.16a1,1,0,0,0,.184.634.627.627,0,0,0,.644.2A.922.922,0,0,0-1381.946,1591.331Z" transform="translate(5738.851 1893.526)" fill="#85a9ff"/>
    <path id="Tracé_47039" data-name="Tracé 47039" d="M-1329.327,1401.541a.94.94,0,0,0-.218-.441.829.829,0,0,0-.079-.067.464.464,0,0,0-.447-.066.564.564,0,0,0-.169.072,1.935,1.935,0,0,0-.676.827,2.9,2.9,0,0,0-.284,1.208,1.2,1.2,0,0,0,.272.863.531.531,0,0,0,.688.055,1.359,1.359,0,0,0,.375-.332,2.345,2.345,0,0,0,.253-.393,2.934,2.934,0,0,0,.333-1.3A1.864,1.864,0,0,0-1329.327,1401.541Zm15.751-35.2a2.25,2.25,0,0,0-1.153-.307,4.484,4.484,0,0,0-2.174.7,9.806,9.806,0,0,0-4,4.807c-.127.284-.248.573-.356.863s-.218.586-.314.888-.2.6-.29.905c-.03.1-.06.206-.091.3-.06.2-.114.4-.175.61a.475.475,0,0,1-.024.084c-.1.375-.2.755-.3,1.13-.055.205-.1.4-.157.6s-.1.4-.157.6c-.212.8-.429,1.564-.671,2.295-.048.151-.1.3-.151.441-.072.212-.151.417-.229.616-.06.157-.127.308-.187.453-.1.247-.211.483-.32.706-.072.145-.145.291-.217.429-1.7,3.261-3.769,4.535-4.971,6.214-1.051,1.461-1.353,2.633-2.766,4.946-.447.737-1.009,1.588-1.752,2.609-2.042,2.815-2.772,4.209-3.026,5.055a.342.342,0,0,0-.025.072c-.018.067-.036.127-.048.187a.225.225,0,0,0-.012.06c-.012.055-.018.109-.03.157a3.8,3.8,0,0,0-.03.5v6.269l2.253,1.3v-6.269a2.9,2.9,0,0,1,.145-.966c.247-.846.972-2.235,3.019-5.055.743-1.021,1.3-1.878,1.758-2.615,1.407-2.307,1.709-3.479,2.76-4.928,0-.006.006-.006.006-.012,1.2-1.685,3.273-2.954,4.97-6.221a16.259,16.259,0,0,0,.725-1.589c1.087-2.718,1.576-6.305,2.911-9.343a9.8,9.8,0,0,1,4-4.795c1.371-.792,2.38-.858,3.147-.5Zm9.887,8.009v.006a2.4,2.4,0,0,0-.6-.235c-.852-.206-2.12.29-3.395.145,1.788,2.313,4.276.828,5.647,1.154a2.07,2.07,0,0,1,.6.248v-.006Zm4.771,8.612a1.038,1.038,0,0,0-.187.139l-.091.09c-.03.036-.06.067-.091.1a2.814,2.814,0,0,0-.592,1.7,1.229,1.229,0,0,0,.266.858.39.39,0,0,0,.078.066.464.464,0,0,0,.447.067.514.514,0,0,0,.169-.072,2.025,2.025,0,0,0,.2-.139,2.118,2.118,0,0,0,.26-.3,2.875,2.875,0,0,0,.5-1.582C-1297.958,1383.072-1298.387,1382.655-1298.918,1382.963Zm1.479-5.671a7.326,7.326,0,0,0-2.331-.827c-.345-.079-.658-.169-.93-.254a6.532,6.532,0,0,0,3.176,1.552,8.986,8.986,0,0,1,2.084.677Z" transform="translate(5720.196 1917.492)" fill="#27debf"/>
    <path id="Tracé_47040" data-name="Tracé 47040" d="M-1329.327,1401.541a.94.94,0,0,0-.218-.441.829.829,0,0,0-.079-.067.464.464,0,0,0-.447-.066.564.564,0,0,0-.169.072,1.935,1.935,0,0,0-.676.827,2.9,2.9,0,0,0-.284,1.208,1.2,1.2,0,0,0,.272.863.531.531,0,0,0,.688.055,1.359,1.359,0,0,0,.375-.332,2.345,2.345,0,0,0,.253-.393,2.934,2.934,0,0,0,.333-1.3A1.864,1.864,0,0,0-1329.327,1401.541Zm15.751-35.2a2.25,2.25,0,0,0-1.153-.307,4.484,4.484,0,0,0-2.174.7,9.806,9.806,0,0,0-4,4.807c-.127.284-.248.573-.356.863s-.218.586-.314.888-.2.6-.29.905c-.03.1-.06.206-.091.3-.06.2-.114.4-.175.61a.475.475,0,0,1-.024.084c-.1.375-.2.755-.3,1.13-.055.205-.1.4-.157.6s-.1.4-.157.6c-.212.8-.429,1.564-.671,2.295-.048.151-.1.3-.151.441-.072.212-.151.417-.229.616-.06.157-.127.308-.187.453-.1.247-.211.483-.32.706-.072.145-.145.291-.217.429-1.7,3.261-3.769,4.535-4.971,6.214-1.051,1.461-1.353,2.633-2.766,4.946-.447.737-1.009,1.588-1.752,2.609-2.042,2.815-2.772,4.209-3.026,5.055a.342.342,0,0,0-.025.072c-.018.067-.036.127-.048.187a.225.225,0,0,0-.012.06c-.012.055-.018.109-.03.157a3.8,3.8,0,0,0-.03.5v6.269l2.253,1.3v-6.269a2.9,2.9,0,0,1,.145-.966c.247-.846.972-2.235,3.019-5.055.743-1.021,1.3-1.878,1.758-2.615,1.407-2.307,1.709-3.479,2.76-4.928,0-.006.006-.006.006-.012,1.2-1.685,3.273-2.954,4.97-6.221a16.259,16.259,0,0,0,.725-1.589c1.087-2.718,1.576-6.305,2.911-9.343a9.8,9.8,0,0,1,4-4.795c1.371-.792,2.38-.858,3.147-.5Zm9.887,8.009v.006a2.4,2.4,0,0,0-.6-.235c-.852-.206-2.12.29-3.395.145,1.788,2.313,4.276.828,5.647,1.154a2.07,2.07,0,0,1,.6.248v-.006Zm4.771,8.612a1.038,1.038,0,0,0-.187.139l-.091.09c-.03.036-.06.067-.091.1a2.814,2.814,0,0,0-.592,1.7,1.229,1.229,0,0,0,.266.858.39.39,0,0,0,.078.066.464.464,0,0,0,.447.067.514.514,0,0,0,.169-.072,2.025,2.025,0,0,0,.2-.139,2.118,2.118,0,0,0,.26-.3,2.875,2.875,0,0,0,.5-1.582C-1297.958,1383.072-1298.387,1382.655-1298.918,1382.963Zm1.479-5.671a7.326,7.326,0,0,0-2.331-.827c-.345-.079-.658-.169-.93-.254a6.532,6.532,0,0,0,3.176,1.552,8.986,8.986,0,0,1,2.084.677Z" transform="translate(5720.196 1917.492)" fill="url(#linear-gradient)"/>
    <path id="Tracé_47041" data-name="Tracé 47041" d="M-1293.93,1379.314c-.056-.033-.117-.067-.178-.106a8.907,8.907,0,0,0-2.083-.678,6.519,6.519,0,0,1-3.177-1.555,4.621,4.621,0,0,0-.734-.545,2.119,2.119,0,0,0-.605-.245c-1.366-.328-3.855,1.161-5.644-1.156l-.055-.072c-1.25-1.683-1.706-5.439-3.578-6.544a2.016,2.016,0,0,0-.189-.106c-.772-.361-1.778-.294-3.15.494-4.96,2.866-5.127,9.672-6.916,14.143s-4.316,5.877-5.694,7.8-1.467,3.35-4.522,7.555-3.166,5.233-3.166,6.027v6.266l40.6-23.447v-6.26A1.582,1.582,0,0,0-1293.93,1379.314Zm-34.98,25.447c-.528.306-.955-.106-.955-.922a2.545,2.545,0,0,1,.955-2.033c.534-.306.956.111.956.927A2.517,2.517,0,0,1-1328.909,1404.762Zm15.587-18.881a2.045,2.045,0,0,1-3.127-.956,5.771,5.771,0,0,1-.494-2.528c0-3.077,1.622-6.5,3.622-7.66a2.939,2.939,0,0,1,.872-.344c1.577-.311,2.744,1.206,2.744,3.828C-1309.706,1381.3-1311.322,1384.725-1313.322,1385.88Zm15.737.794c-.533.306-.961-.1-.961-.916a2.513,2.513,0,0,1,.961-2.028c.528-.306.956.106.956.922A2.521,2.521,0,0,1-1297.585,1386.674Z" transform="translate(5718.865 1916.725)" fill="#27debf"/>
    <path id="Tracé_47042" data-name="Tracé 47042" d="M-1293.93,1379.314c-.056-.033-.117-.067-.178-.106a8.907,8.907,0,0,0-2.083-.678,6.519,6.519,0,0,1-3.177-1.555,4.621,4.621,0,0,0-.734-.545,2.119,2.119,0,0,0-.605-.245c-1.366-.328-3.855,1.161-5.644-1.156l-.055-.072c-1.25-1.683-1.706-5.439-3.578-6.544a2.016,2.016,0,0,0-.189-.106c-.772-.361-1.778-.294-3.15.494-4.96,2.866-5.127,9.672-6.916,14.143s-4.316,5.877-5.694,7.8-1.467,3.35-4.522,7.555-3.166,5.233-3.166,6.027v6.266l40.6-23.447v-6.26A1.582,1.582,0,0,0-1293.93,1379.314Zm-34.98,25.447c-.528.306-.955-.106-.955-.922a2.545,2.545,0,0,1,.955-2.033c.534-.306.956.111.956.927A2.517,2.517,0,0,1-1328.909,1404.762Zm15.587-18.881a2.045,2.045,0,0,1-3.127-.956,5.771,5.771,0,0,1-.494-2.528c0-3.077,1.622-6.5,3.622-7.66a2.939,2.939,0,0,1,.872-.344c1.577-.311,2.744,1.206,2.744,3.828C-1309.706,1381.3-1311.322,1384.725-1313.322,1385.88Zm15.737.794c-.533.306-.961-.1-.961-.916a2.513,2.513,0,0,1,.961-2.028c.528-.306.956.106.956.922A2.521,2.521,0,0,1-1297.585,1386.674Z" transform="translate(5718.865 1916.725)" fill="#9daae2"/>
    <path id="Tracé_47043" data-name="Tracé 47043" d="M-1334.8,1423.417a2.9,2.9,0,0,0-.145.966v6.269l-2.253-1.3v-6.269a3.806,3.806,0,0,1,.03-.5c.012-.048.018-.1.03-.157a.225.225,0,0,1,.012-.06c.012-.06.03-.121.048-.187l.018-.072h.006Z" transform="translate(5720.196 1896.673)" fill="#27debf"/>
    <path id="Tracé_47044" data-name="Tracé 47044" d="M-1324.362,1403.373c-1.051,1.449-1.352,2.621-2.76,4.928l-2.253-1.3c1.413-2.313,1.715-3.485,2.766-4.946h.006Z" transform="translate(5717.289 1904.119)" fill="#27debf"/>
    <path id="Tracé_47045" data-name="Tracé 47045" d="M-1311.181,1376.087c-1.335,3.038-1.824,6.626-2.911,9.343a16.22,16.22,0,0,1-.725,1.589l-2.252-1.3c.072-.139.145-.284.217-.429.109-.223.218-.459.32-.706.06-.145.127-.3.187-.453.079-.2.157-.4.229-.616.055-.145.1-.29.151-.441.242-.731.459-1.5.671-2.295.054-.2.1-.4.157-.6s.1-.4.157-.6c.1-.375.2-.755.3-1.13a.468.468,0,0,0,.025-.084c.06-.206.114-.405.175-.61.03-.1.06-.2.091-.3q.137-.453.29-.906c.1-.3.206-.592.314-.888s.229-.58.356-.863Z" transform="translate(5712.721 1914.24)" fill="#27debf"/>
    <path id="Tracé_47046" data-name="Tracé 47046" d="M-1334.8,1423.417a2.9,2.9,0,0,0-.145.966v6.269l-2.253-1.3v-6.269a3.806,3.806,0,0,1,.03-.5c.012-.048.018-.1.03-.157a.225.225,0,0,1,.012-.06c.012-.06.03-.121.048-.187l.018-.072h.006Z" transform="translate(5720.196 1896.673)" fill="#d3d8f9"/>
    <path id="Tracé_47047" data-name="Tracé 47047" d="M-1324.362,1403.373c-1.051,1.449-1.352,2.621-2.76,4.928l-2.253-1.3c1.413-2.313,1.715-3.485,2.766-4.946h.006Z" transform="translate(5717.289 1904.119)" fill="#d3d8f9"/>
    <path id="Tracé_47048" data-name="Tracé 47048" d="M-1311.181,1376.087c-1.335,3.038-1.824,6.626-2.911,9.343a16.22,16.22,0,0,1-.725,1.589l-2.252-1.3c.072-.139.145-.284.217-.429.109-.223.218-.459.32-.706.06-.145.127-.3.187-.453.079-.2.157-.4.229-.616.055-.145.1-.29.151-.441.242-.731.459-1.5.671-2.295.054-.2.1-.4.157-.6s.1-.4.157-.6c.1-.375.2-.755.3-1.13a.468.468,0,0,0,.025-.084c.06-.206.114-.405.175-.61.03-.1.06-.2.091-.3q.137-.453.29-.906c.1-.3.206-.592.314-.888s.229-.58.356-.863Z" transform="translate(5712.721 1914.24)" fill="#d3d8f9"/>
    <path id="Tracé_47049" data-name="Tracé 47049" d="M-1327.371,1413.607a2.9,2.9,0,0,0-.284,1.208,1.2,1.2,0,0,0,.272.863,1.236,1.236,0,0,1-.265-.863A2.991,2.991,0,0,1-1327.371,1413.607Zm1.637.1a1.864,1.864,0,0,0-.048-.429,2.313,2.313,0,0,1,.042.429,2.929,2.929,0,0,1-.326,1.3A2.936,2.936,0,0,0-1325.734,1413.709Zm29.744-16.053a.464.464,0,0,0,.447.067A.5.5,0,0,1-1295.99,1397.656Z" transform="translate(5716.651 1905.752)" fill="#27debf"/>
    <path id="Tracé_47050" data-name="Tracé 47050" d="M-1299.565,1381.914c0,3.074-1.618,6.5-3.618,7.658a2.046,2.046,0,0,1-3.128-.954,2.808,2.808,0,0,0,.876-.344c2-1.16,3.617-4.584,3.617-7.664a5.723,5.723,0,0,0-.495-2.524C-1300.737,1377.771-1299.565,1379.293-1299.565,1381.914Z" transform="translate(5708.727 1913.033)" fill="#27debf"/>
    <path id="Tracé_47051" data-name="Tracé 47051" d="M-1299.565,1381.914c0,3.074-1.618,6.5-3.618,7.658a2.046,2.046,0,0,1-3.128-.954,2.808,2.808,0,0,0,.876-.344c2-1.16,3.617-4.584,3.617-7.664a5.723,5.723,0,0,0-.495-2.524C-1300.737,1377.771-1299.565,1379.293-1299.565,1381.914Z" transform="translate(5708.727 1913.033)" fill="#4267c5"/>
    <path id="Tracé_47052" data-name="Tracé 47052" d="M-1326.068,1423.879a2.243,2.243,0,0,1-.252.393,1.357,1.357,0,0,1-.375.332.531.531,0,0,1-.688-.055,1.2,1.2,0,0,1-.272-.863,2.9,2.9,0,0,1,.284-1.208,1.934,1.934,0,0,1,.676-.828.564.564,0,0,1,.169-.072.493.493,0,0,1,.526.133.941.941,0,0,1,.218.441,1.865,1.865,0,0,1,.048.429A2.9,2.9,0,0,1-1326.068,1423.879Z" transform="translate(5716.651 1896.881)" fill="#455a64"/>
    <path id="Tracé_47053" data-name="Tracé 47053" d="M-1275.919,1393.823a2.875,2.875,0,0,1-.5,1.582,2.132,2.132,0,0,1-.26.3,2.063,2.063,0,0,1-.2.139.513.513,0,0,1-.169.072.481.481,0,0,1-.525-.133,1.229,1.229,0,0,1-.266-.858,2.813,2.813,0,0,1,.592-1.7c.03-.036.06-.067.091-.1l.091-.09a1.036,1.036,0,0,1,.187-.139C-1276.349,1392.591-1275.919,1393.008-1275.919,1393.823Z" transform="translate(5698.157 1907.556)" fill="#37474f"/>
    <path id="Tracé_47054" data-name="Tracé 47054" d="M-1281.408,1380.531c-.088-.3-.366-.391-.695-.2L-1366.408,1429a1.5,1.5,0,0,0-.511.537l-2.255-1.3a1.448,1.448,0,0,1,.107-.164,1.4,1.4,0,0,1,.126-.145,1.277,1.277,0,0,1,.278-.227l84.305-48.673a1.016,1.016,0,0,1,.208-.095,1.627,1.627,0,0,1,1.068.019.745.745,0,0,1,.158.076l.821.467a.771.771,0,0,1,.12.089.432.432,0,0,1,.1.088,1.426,1.426,0,0,1,.133.139.954.954,0,0,1,.089.126,1.043,1.043,0,0,1,.088.139,1.592,1.592,0,0,1,.126.3A1.352,1.352,0,0,1-1281.408,1380.531Z" transform="translate(5732.065 1912.734)" fill="#fff"/>
    <path id="Tracé_47056" data-name="Tracé 47056" d="M-1255.348,1563.4a105.737,105.737,0,0,1-18.952-31.249,105.854,105.854,0,0,1-7.231-38.455v-30.965l-2.57-1.48-83.175-1.838a1.54,1.54,0,0,1,.209-.714l-2.255-1.3a1.623,1.623,0,0,0-.089.177,1.38,1.38,0,0,0-.12.537v52.626h-.007l-.038.025v30.959c0,1.471.013,2.949.045,4.414v.05a87.271,87.271,0,0,0,.865,11.292q.558,3.732,1.389,7.4a105.42,105.42,0,0,0,6.682,20.115,105.659,105.659,0,0,0,18.687,28.394Z" transform="translate(5732.214 1883.573)" fill="#ebebeb"/>
    <path id="Tracé_47059" data-name="Tracé 47059" d="M-1252.235,1534.04a105.74,105.74,0,0,1-20.708-33.207,105.849,105.849,0,0,1-7.231-38.455V1381.56a.847.847,0,0,0-.026-.215c-.088-.3-.366-.391-.695-.2l-84.305,48.673a1.5,1.5,0,0,0-.511.537,1.537,1.537,0,0,0-.209.714v80.819a105.467,105.467,0,0,0,1.182,15.757,105.861,105.861,0,0,0,8.071,27.523,105.617,105.617,0,0,0,18.687,28.388Z" transform="translate(5730.857 1911.919)" fill="#fafafa"/>
    <path id="Tracé_47061" data-name="Tracé 47061" d="M-1313.7,1409.558c-.042.066-.078.126-.115.187a4.473,4.473,0,0,0-.574,1.425.745.745,0,0,0-.012.079.111.111,0,0,0-.006.03l-1.371,7.743-.434,2.476a2.893,2.893,0,0,1-.073.308,2.655,2.655,0,0,1-.091.3l-.072.2,2.253,1.3a3.807,3.807,0,0,0,.235-.8l.441-2.476,1.365-7.743a4.178,4.178,0,0,1,.706-1.727Z" transform="translate(5712.489 1901.334)" fill="#27debf"/>
    <path id="Tracé_47062" data-name="Tracé 47062" d="M-1338.428,1448.709c-.229.356-.447.719-.64,1.081q-.145.263-.272.526c-.109.223-.217.453-.314.682-.109.248-.211.5-.308.755s-.187.507-.272.767c-.1.3-.194.592-.278.893q-.081.291-.163.6c-.127.477-.236.961-.338,1.45-.036.169-.073.344-.1.513-.042.206-.084.411-.121.616,0,.006-.006.024-.006.03-.025.163.006.272.078.32a.108.108,0,0,0,.073.006h.012l.006-.006.006-.006,1.915-1.528.314-.248.151-.115c.067-.055.121-.1.169-.133l.133-.1c.072-.06.115-.091.115-.091a17.2,17.2,0,0,1,2.784-5.683l-2.253-1.3Q-1338.111,1448.219-1338.428,1448.709Z" transform="translate(5721.699 1887.162)" fill="#27debf"/>
    <path id="Tracé_47063" data-name="Tracé 47063" d="M-1300.417,1382.47c-.1.169-.2.344-.29.519a3,3,0,0,0-.163.3c-.079.145-.151.29-.223.435-.06.121-.121.235-.176.356q-.163.344-.308.688-.163.371-.308.743a.023.023,0,0,0-.006.018c-.091.223-.169.447-.241.67-.121.338-.224.677-.314,1.015-.054.181-.1.356-.139.531a.145.145,0,0,0-.012.042c-.018.091-.042.182-.06.272-.048.211-.091.422-.127.628-.03.163-.067.332-.109.5s-.091.344-.145.519-.109.332-.164.5c-.012.012-.012.03-.018.042-.066.182-.138.369-.217.556s-.151.375-.242.568c-.024.055-.048.1-.066.151-.067.145-.139.284-.206.429-.115.229-.236.465-.357.695-.079.157-.163.308-.247.459l2.258,1.3a15.393,15.393,0,0,0,1.764-4.415,19.359,19.359,0,0,1,2.374-6.227Z" transform="translate(5708.075 1911.39)" fill="#27debf"/>
    <path id="Tracé_47064" data-name="Tracé 47064" d="M-1276.857,1390.377a.958.958,0,0,0-.368-.127,2.757,2.757,0,0,0,2.011,1.281,1.334,1.334,0,0,1,.562.121Z" transform="translate(5697.929 1908.502)" fill="#27debf"/>
    <path id="Tracé_47065" data-name="Tracé 47065" d="M-1276.857,1390.377a.958.958,0,0,0-.368-.127,2.757,2.757,0,0,0,2.011,1.281,1.334,1.334,0,0,1,.562.121Z" transform="translate(5697.929 1908.502)" fill="#fff" opacity="0.8"/>
    <path id="Tracé_47066" data-name="Tracé 47066" d="M-1267.692,1405.889a2.45,2.45,0,0,0-2.259.066c-2.621,1.159-3.757,1.679-5.109,2.247-.266,1.74.761,1.9,1.274,1.7,1.9-.755,2.875-1.22,6.094-2.633a2.415,2.415,0,0,1,2.24-.073Z" transform="translate(5697.142 1902.786)" fill="#27debf"/>
    <path id="Tracé_47067" data-name="Tracé 47067" d="M-1267.692,1405.889a2.45,2.45,0,0,0-2.259.066c-2.621,1.159-3.757,1.679-5.109,2.247-.266,1.74.761,1.9,1.274,1.7,1.9-.755,2.875-1.22,6.094-2.633a2.415,2.415,0,0,1,2.24-.073Z" transform="translate(5697.142 1902.786)" fill="url(#linear-gradient)"/>
    <path id="Tracé_47068" data-name="Tracé 47068" d="M-1321.328,1431.13a9.257,9.257,0,0,1-1.987,2.833l-7.067,5.3a19.015,19.015,0,0,0-3.032,3.122l-2.253-1.3a18.72,18.72,0,0,1,3.032-3.122l7.072-5.3a9.3,9.3,0,0,0,1.981-2.832Z" transform="translate(5719.625 1893.809)" fill="#27debf"/>
    <path id="Tracé_47069" data-name="Tracé 47069" d="M-1321.328,1431.13a9.257,9.257,0,0,1-1.987,2.833l-7.067,5.3a19.015,19.015,0,0,0-3.032,3.122l-2.253-1.3a18.72,18.72,0,0,1,3.032-3.122l7.072-5.3a9.3,9.3,0,0,0,1.981-2.832Z" transform="translate(5719.625 1893.809)" fill="url(#linear-gradient)"/>
    <path id="Tracé_47070" data-name="Tracé 47070" d="M-1305.087,1400.7a23.967,23.967,0,0,1-3.563,4.965,8.413,8.413,0,0,0-1.172,1.419l-2.253-1.3a7.877,7.877,0,0,1,1.166-1.425,23.928,23.928,0,0,0,3.564-4.965Z" transform="translate(5710.867 1905.107)" fill="#27debf"/>
    <path id="Tracé_47071" data-name="Tracé 47071" d="M-1305.087,1400.7a23.967,23.967,0,0,1-3.563,4.965,8.413,8.413,0,0,0-1.172,1.419l-2.253-1.3a7.877,7.877,0,0,1,1.166-1.425,23.928,23.928,0,0,0,3.564-4.965Z" transform="translate(5710.867 1905.107)" fill="url(#linear-gradient)"/>
    <path id="Tracé_47072" data-name="Tracé 47072" d="M-1287.115,1374.05a3.47,3.47,0,0,0-3.243.321,15.009,15.009,0,0,0-5.357,5.7l-2.259-1.3a14.984,14.984,0,0,1,5.363-5.7,4.521,4.521,0,0,1,2.065-.586,2.508,2.508,0,0,1,1.244.314Z" transform="translate(5705.632 1915.099)" fill="#27debf"/>
    <path id="Tracé_47073" data-name="Tracé 47073" d="M-1287.115,1374.05a3.47,3.47,0,0,0-3.243.321,15.009,15.009,0,0,0-5.357,5.7l-2.259-1.3a14.984,14.984,0,0,1,5.363-5.7,4.521,4.521,0,0,1,2.065-.586,2.508,2.508,0,0,1,1.244.314Z" transform="translate(5705.632 1915.099)" fill="url(#linear-gradient)"/>
    <path id="Tracé_47074" data-name="Tracé 47074" d="M-1335.486,1449.035a17.2,17.2,0,0,0-2.784,5.683s-.043.03-.115.091l-.133.1c-.048.036-.1.078-.169.133l-.151.115-.314.248-1.915,1.528-.006.006-.006.006h-.012a.108.108,0,0,1-.073-.006c-.072-.048-.1-.157-.078-.32,0-.006.006-.024.006-.03.036-.206.079-.411.121-.616.03-.169.067-.344.1-.513.1-.489.211-.973.338-1.45q.081-.307.163-.6c.084-.3.175-.6.278-.893.084-.26.175-.514.272-.767s.2-.507.308-.755c.1-.229.205-.459.314-.682q.127-.263.272-.526c.193-.362.411-.725.64-1.081q.317-.49.688-.979Z" transform="translate(5721.699 1887.162)" fill="#d3d8f9"/>
    <path id="Tracé_47075" data-name="Tracé 47075" d="M-1311.444,1410.856a4.178,4.178,0,0,0-.706,1.727l-1.365,7.743-.441,2.476a3.807,3.807,0,0,1-.235.8l-2.253-1.3.072-.2a2.655,2.655,0,0,0,.091-.3,2.893,2.893,0,0,0,.073-.308l.434-2.476,1.371-7.743a.111.111,0,0,1,.006-.03.745.745,0,0,1,.012-.079,4.473,4.473,0,0,1,.574-1.425c.036-.06.072-.121.115-.187Z" transform="translate(5712.489 1901.334)" fill="#d3d8f9"/>
    <path id="Tracé_47076" data-name="Tracé 47076" d="M-1298.157,1383.775a19.359,19.359,0,0,0-2.374,6.227,15.393,15.393,0,0,1-1.764,4.415l-2.258-1.3c.084-.151.168-.3.247-.459.121-.229.242-.465.357-.695.067-.145.139-.283.206-.429.018-.048.042-.1.066-.151.085-.187.163-.38.242-.568s.151-.374.217-.556c.006-.012.006-.03.018-.042.055-.169.115-.332.164-.5s.1-.35.145-.519.079-.338.109-.5c.036-.206.079-.417.127-.628.018-.091.042-.182.06-.272a.145.145,0,0,1,.012-.042c.042-.175.085-.35.139-.531.091-.338.193-.677.314-1.015.072-.223.151-.447.241-.67a.023.023,0,0,1,.006-.018q.145-.372.308-.743.145-.344.308-.688c.054-.121.115-.236.176-.356.072-.145.145-.29.223-.435a3,3,0,0,1,.163-.3c.091-.175.187-.35.29-.519Z" transform="translate(5708.075 1911.39)" fill="#d3d8f9"/>
    <path id="Tracé_47077" data-name="Tracé 47077" d="M-1340.988,1461.473v.006h.006l.006-.006.006-.006,1.915-1.528C-1339.84,1460.55-1340.879,1461.364-1340.988,1461.473Z" transform="translate(5721.601 1882.63)" fill="#27debf"/>
    <path id="Tracé_47078" data-name="Tracé 47078" d="M-1289.879,1395.66l-.033-.016a2.451,2.451,0,0,0-2.244.072c-3.217,1.417-4.189,1.883-6.094,2.638-.511.206-1.539.039-1.272-1.7a.836.836,0,0,1,.016-.117l.439-2.477,1.217-6.749s.278-1.061-.428-1.461c-.017-.011-.033-.017-.05-.028a1.309,1.309,0,0,0-.561-.123,2.742,2.742,0,0,1-2.011-1.283,5.068,5.068,0,0,1-.756-3.861c.511-2.894-.05-4.921-1.333-5.677a.935.935,0,0,0-.1-.061,3.446,3.446,0,0,0-3.239.316c-3.427,1.8-6.888,7.133-7.732,11.921-.533,3.022-3.572,7.671-5.328,9.382a5.6,5.6,0,0,0-1.877,3.144l-1.367,7.744-.438,2.477a8.12,8.12,0,0,1-2.223,3.639l-7.066,5.3a17.045,17.045,0,0,0-5.816,8.8s-2.65,2.055-2.816,2.222v.006c-.006.006-.006.006.006,0l.006-.006.905-.517,48.789-28.047s.561-.306.683-.384,2.088-1.933,2.088-1.933C-1288.6,1397.288-1289.062,1396.149-1289.879,1395.66Zm-14.1-14.232c-.522,2.944-2.644,6.227-4.755,7.333-1.455.761-2.516.289-2.872-1.049a5.57,5.57,0,0,1-.006-2.283c.522-2.944,2.65-6.227,4.76-7.327a3.761,3.761,0,0,1,.611-.261C-1304.5,1377.313-1303.511,1378.785-1303.978,1381.428Z" transform="translate(5721.604 1914.333)" fill="#27debf"/>
    <path id="Tracé_47079" data-name="Tracé 47079" d="M-1289.879,1395.66l-.033-.016a2.451,2.451,0,0,0-2.244.072c-3.217,1.417-4.189,1.883-6.094,2.638-.511.206-1.539.039-1.272-1.7a.836.836,0,0,1,.016-.117l.439-2.477,1.217-6.749s.278-1.061-.428-1.461c-.017-.011-.033-.017-.05-.028a1.309,1.309,0,0,0-.561-.123,2.742,2.742,0,0,1-2.011-1.283,5.068,5.068,0,0,1-.756-3.861c.511-2.894-.05-4.921-1.333-5.677a.935.935,0,0,0-.1-.061,3.446,3.446,0,0,0-3.239.316c-3.427,1.8-6.888,7.133-7.732,11.921-.533,3.022-3.572,7.671-5.328,9.382a5.6,5.6,0,0,0-1.877,3.144l-1.367,7.744-.438,2.477a8.12,8.12,0,0,1-2.223,3.639l-7.066,5.3a17.045,17.045,0,0,0-5.816,8.8s-2.65,2.055-2.816,2.222v.006c-.006.006-.006.006.006,0l.006-.006.905-.517,48.789-28.047s.561-.306.683-.384,2.088-1.933,2.088-1.933C-1288.6,1397.288-1289.062,1396.149-1289.879,1395.66Zm-14.1-14.232c-.522,2.944-2.644,6.227-4.755,7.333-1.455.761-2.516.289-2.872-1.049a5.57,5.57,0,0,1-.006-2.283c.522-2.944,2.65-6.227,4.76-7.327a3.761,3.761,0,0,1,.611-.261C-1304.5,1377.313-1303.511,1378.785-1303.978,1381.428Z" transform="translate(5721.604 1914.333)" fill="#9daae2"/>
    <path id="Tracé_47080" data-name="Tracé 47080" d="M-1340.984,1444.148l49.7-28.569s.564-.308.685-.382,2.089-1.937,2.089-1.937l-49.66,28.661S-1341.182,1444.251-1340.984,1444.148Z" transform="translate(5721.603 1899.959)" fill="#4267c5"/>
    <path id="Tracé_47081" data-name="Tracé 47081" d="M-1288.956,1379.724a3.793,3.793,0,0,0-.611.261c-2.111,1.1-4.238,4.383-4.76,7.327a5.584,5.584,0,0,0,.005,2.283c.356,1.339,1.417,1.811,2.872,1.049,2.111-1.105,4.233-4.388,4.755-7.332C-1286.229,1380.668-1287.217,1379.2-1288.956,1379.724Zm-5.237,9.813a5.523,5.523,0,0,1,0-2.2c.516-2.907,2.619-6.15,4.688-7.228a3.656,3.656,0,0,1,.572-.246,5.635,5.635,0,0,1-.02,2.145c-.517,2.944-2.644,6.227-4.755,7.333a4.005,4.005,0,0,1-.482.206Z" transform="translate(5704.321 1912.449)" fill="#27debf"/>
    <path id="Tracé_47082" data-name="Tracé 47082" d="M-1288.956,1379.724a3.793,3.793,0,0,0-.611.261c-2.111,1.1-4.238,4.383-4.76,7.327a5.584,5.584,0,0,0,.005,2.283c.356,1.339,1.417,1.811,2.872,1.049,2.111-1.105,4.233-4.388,4.755-7.332C-1286.229,1380.668-1287.217,1379.2-1288.956,1379.724Zm-5.237,9.813a5.523,5.523,0,0,1,0-2.2c.516-2.907,2.619-6.15,4.688-7.228a3.656,3.656,0,0,1,.572-.246,5.635,5.635,0,0,1-.02,2.145c-.517,2.944-2.644,6.227-4.755,7.333a4.005,4.005,0,0,1-.482.206Z" transform="translate(5704.321 1912.449)" fill="#4267c5"/>
    <path id="Tracé_47083" data-name="Tracé 47083" d="M-1351.027,1505.04c0,1.21.85,1.7,1.9,1.1a4.2,4.2,0,0,0,1.9-3.288c0-1.211-.85-1.7-1.9-1.1A4.2,4.2,0,0,0-1351.027,1505.04Z" transform="translate(5725.328 1867.203)" fill="none" stroke="#009de0" stroke-miterlimit="10" stroke-width="1"/>
    <path id="Tracé_47084" data-name="Tracé 47084" d="M-1337.964,1486.8l32.209-18.6c.543-.313.982-.077.982.529a2.134,2.134,0,0,1-.982,1.663l-32.209,18.6c-.543.313-.982.077-.982-.529A2.134,2.134,0,0,1-1337.964,1486.8Z" transform="translate(5720.843 1879.611)" fill="#455a64"/>
    <path id="Tracé_47085" data-name="Tracé 47085" d="M-1351.027,1518.987c0,1.211.85,1.7,1.9,1.1a4.2,4.2,0,0,0,1.9-3.288c0-1.21-.85-1.7-1.9-1.1A4.2,4.2,0,0,0-1351.027,1518.987Z" transform="translate(5725.328 1862.025)" fill="none" stroke="#009de0" stroke-miterlimit="10" stroke-width="1"/>
    <path id="Tracé_47086" data-name="Tracé 47086" d="M-1337.964,1500.752l32.209-18.6c.543-.313.982-.076.982.529a2.136,2.136,0,0,1-.982,1.664l-32.209,18.6c-.543.313-.982.076-.982-.529A2.135,2.135,0,0,1-1337.964,1500.752Z" transform="translate(5720.843 1874.433)" fill="#455a64"/>
    <path id="Tracé_47087" data-name="Tracé 47087" d="M-1351.027,1534.169c0,1.21.85,1.7,1.9,1.1a4.2,4.2,0,0,0,1.9-3.288c0-1.211-.85-1.7-1.9-1.1A4.2,4.2,0,0,0-1351.027,1534.169Z" transform="translate(5725.328 1856.389)" fill="none" stroke="#009de0" stroke-miterlimit="10" stroke-width="1"/>
    <path id="Tracé_47088" data-name="Tracé 47088" d="M-1337.964,1515.934l32.209-18.6c.543-.313.982-.077.982.529a2.134,2.134,0,0,1-.982,1.663l-32.209,18.6c-.543.314-.982.077-.982-.529A2.134,2.134,0,0,1-1337.964,1515.934Z" transform="translate(5720.843 1868.797)" fill="#455a64"/>
    <path id="Tracé_47089" data-name="Tracé 47089" d="M-1350.022,1564.3c0,1.211.85,1.7,1.9,1.1a4.2,4.2,0,0,0,1.9-3.288c0-1.21-.85-1.7-1.9-1.1A4.2,4.2,0,0,0-1350.022,1564.3Z" transform="translate(5724.955 1845.202)" fill="none" stroke="#009de0" stroke-miterlimit="10" stroke-width="1"/>
    <path id="Tracé_47090" data-name="Tracé 47090" d="M-1336.96,1546.067l32.209-18.6c.543-.313.983-.076.983.529a2.136,2.136,0,0,1-.983,1.663l-32.208,18.6c-.543.313-.983.076-.983-.529A2.135,2.135,0,0,1-1336.96,1546.067Z" transform="translate(5720.47 1857.61)" fill="#455a64"/>
    <path id="Tracé_47091" data-name="Tracé 47091" d="M-1348.013,1581.378c0,1.21.85,1.7,1.9,1.1a4.2,4.2,0,0,0,1.9-3.288c0-1.211-.85-1.7-1.9-1.1A4.2,4.2,0,0,0-1348.013,1581.378Z" transform="translate(5724.209 1838.863)" fill="none" stroke="#009de0" stroke-miterlimit="10" stroke-width="1"/>
    <path id="Tracé_47092" data-name="Tracé 47092" d="M-1334.951,1563.143l32.209-18.6c.542-.313.982-.077.982.529a2.136,2.136,0,0,1-.982,1.664l-32.208,18.6c-.543.314-.983.077-.983-.529A2.135,2.135,0,0,1-1334.951,1563.143Z" transform="translate(5719.724 1851.271)" fill="#455a64"/>
    <path id="Tracé_47093" data-name="Tracé 47093" d="M-1351.027,1548.116c0,1.211.85,1.7,1.9,1.1a4.2,4.2,0,0,0,1.9-3.288c0-1.21-.85-1.7-1.9-1.1A4.2,4.2,0,0,0-1351.027,1548.116Z" transform="translate(5725.328 1851.211)" fill="none" stroke="#009de0" stroke-miterlimit="10" stroke-width="1"/>
    <path id="Tracé_47094" data-name="Tracé 47094" d="M-1337.964,1529.881l32.209-18.6c.543-.313.982-.076.982.529a2.135,2.135,0,0,1-.982,1.664l-32.209,18.6c-.543.313-.982.076-.982-.529A2.135,2.135,0,0,1-1337.964,1529.881Z" transform="translate(5720.843 1863.619)" fill="#455a64"/>
    <path id="Tracé_47095" data-name="Tracé 47095" d="M-1337.754,1580.736l52.228-30.153a1.04,1.04,0,0,1,1.65.764l.121.671a2.4,2.4,0,0,1-1.085,2.343l-52.152,30.109a1.068,1.068,0,0,1-1.683-.758l-.131-.64A2.337,2.337,0,0,1-1337.754,1580.736Z" transform="translate(5720.804 1849.049)" fill="#f49e00"/>
    <path id="Tracé_47096" data-name="Tracé 47096" d="M-1272.265,1511.839a.315.315,0,0,1-.273-.158.316.316,0,0,1,.116-.431l20.523-11.849a.315.315,0,0,1,.431.116.315.315,0,0,1-.115.431l-20.523,11.849A.313.313,0,0,1-1272.265,1511.839Z" transform="translate(5696.204 1867.995)"/>
    <path id="Tracé_47097" data-name="Tracé 47097" d="M-1272.265,1516.55a.315.315,0,0,1-.273-.158.316.316,0,0,1,.116-.431l20.523-11.849a.314.314,0,0,1,.431.116.315.315,0,0,1-.115.431l-20.523,11.849A.315.315,0,0,1-1272.265,1516.55Z" transform="translate(5696.204 1866.247)"/>
    <path id="Tracé_47098" data-name="Tracé 47098" d="M-1272.265,1521.261a.315.315,0,0,1-.273-.158.316.316,0,0,1,.116-.431l20.523-11.849a.315.315,0,0,1,.431.116.315.315,0,0,1-.115.431l-20.523,11.849A.319.319,0,0,1-1272.265,1521.261Z" transform="translate(5696.204 1864.497)"/>
    <path id="Tracé_47099" data-name="Tracé 47099" d="M-1272.265,1525.973a.315.315,0,0,1-.273-.158.316.316,0,0,1,.116-.431l20.523-11.849a.314.314,0,0,1,.431.116.315.315,0,0,1-.115.431l-20.523,11.849A.312.312,0,0,1-1272.265,1525.973Z" transform="translate(5696.204 1862.748)"/>
    <path id="Tracé_47100" data-name="Tracé 47100" d="M-1272.265,1530.684a.314.314,0,0,1-.273-.158.316.316,0,0,1,.116-.431l20.523-11.849a.314.314,0,0,1,.431.116.315.315,0,0,1-.115.431l-20.523,11.849A.314.314,0,0,1-1272.265,1530.684Z" transform="translate(5696.204 1860.999)"/>
    <path id="Tracé_47101" data-name="Tracé 47101" d="M-1272.265,1535.4a.316.316,0,0,1-.273-.158.316.316,0,0,1,.116-.432l20.523-11.849a.314.314,0,0,1,.431.116.315.315,0,0,1-.115.431l-20.523,11.849A.319.319,0,0,1-1272.265,1535.4Z" transform="translate(5696.204 1859.25)"/>
    <path id="Tracé_47102" data-name="Tracé 47102" d="M-1272.265,1540.107a.315.315,0,0,1-.273-.158.316.316,0,0,1,.116-.431l20.523-11.849a.315.315,0,0,1,.431.115.316.316,0,0,1-.115.432l-20.523,11.849A.313.313,0,0,1-1272.265,1540.107Z" transform="translate(5696.204 1857.501)"/>
    <path id="Tracé_47103" data-name="Tracé 47103" d="M-1272.265,1455.3a.315.315,0,0,1-.273-.158.316.316,0,0,1,.116-.432l20.523-11.849a.314.314,0,0,1,.431.116.315.315,0,0,1-.115.431l-20.523,11.849A.319.319,0,0,1-1272.265,1455.3Z" transform="translate(5696.204 1888.986)"/>
    <path id="Tracé_47104" data-name="Tracé 47104" d="M-1272.265,1460.012a.314.314,0,0,1-.273-.158.316.316,0,0,1,.116-.431l20.523-11.849a.315.315,0,0,1,.431.116.315.315,0,0,1-.115.431l-20.523,11.849A.312.312,0,0,1-1272.265,1460.012Z" transform="translate(5696.204 1887.236)"/>
    <path id="Tracé_47105" data-name="Tracé 47105" d="M-1272.265,1464.723a.315.315,0,0,1-.273-.158.316.316,0,0,1,.116-.431l20.523-11.849a.314.314,0,0,1,.431.116.315.315,0,0,1-.115.431l-20.523,11.849A.319.319,0,0,1-1272.265,1464.723Z" transform="translate(5696.204 1885.487)"/>
    <path id="Tracé_47106" data-name="Tracé 47106" d="M-1272.265,1469.435a.315.315,0,0,1-.273-.159.316.316,0,0,1,.116-.431L-1251.9,1457a.314.314,0,0,1,.431.116.315.315,0,0,1-.115.431l-20.523,11.849A.314.314,0,0,1-1272.265,1469.435Z" transform="translate(5696.204 1883.738)"/>
    <path id="Tracé_47107" data-name="Tracé 47107" d="M-1272.265,1474.147a.314.314,0,0,1-.273-.158.316.316,0,0,1,.116-.431l20.523-11.849a.314.314,0,0,1,.431.116.315.315,0,0,1-.115.431l-20.523,11.849A.314.314,0,0,1-1272.265,1474.147Z" transform="translate(5696.204 1881.989)"/>
    <path id="Tracé_47108" data-name="Tracé 47108" d="M-1272.265,1478.858a.316.316,0,0,1-.273-.158.316.316,0,0,1,.116-.432l20.523-11.849a.314.314,0,0,1,.431.116.315.315,0,0,1-.115.431l-20.523,11.849A.314.314,0,0,1-1272.265,1478.858Z" transform="translate(5696.204 1880.24)"/>
    <path id="Tracé_47109" data-name="Tracé 47109" d="M-1272.265,1483.57a.314.314,0,0,1-.273-.158.316.316,0,0,1,.116-.431l20.523-11.849a.314.314,0,0,1,.431.116.315.315,0,0,1-.115.431l-20.523,11.849A.312.312,0,0,1-1272.265,1483.57Z" transform="translate(5696.204 1878.49)"/>
    <path id="Tracé_47110" data-name="Tracé 47110" d="M-1272.265,1488.282a.314.314,0,0,1-.273-.158.316.316,0,0,1,.116-.431l20.523-11.849a.314.314,0,0,1,.431.116.315.315,0,0,1-.115.431l-20.523,11.849A.312.312,0,0,1-1272.265,1488.282Z" transform="translate(5696.204 1876.741)"/>
    <path id="Tracé_47111" data-name="Tracé 47111" d="M-1272.265,1492.994a.315.315,0,0,1-.273-.159.316.316,0,0,1,.116-.431l20.523-11.849a.315.315,0,0,1,.431.116.315.315,0,0,1-.115.431l-20.523,11.849A.315.315,0,0,1-1272.265,1492.994Z" transform="translate(5696.204 1874.992)"/>
    <path id="Tracé_47112" data-name="Tracé 47112" d="M-1272.265,1497.7a.314.314,0,0,1-.273-.158.316.316,0,0,1,.116-.431l20.523-11.849a.314.314,0,0,1,.431.116.315.315,0,0,1-.115.431l-20.523,11.849A.313.313,0,0,1-1272.265,1497.7Z" transform="translate(5696.204 1873.243)"/>
    <path id="Tracé_47113" data-name="Tracé 47113" d="M-1272.265,1505.914a.315.315,0,0,1-.273-.158.316.316,0,0,1,.116-.431l10.261-5.927a.315.315,0,0,1,.431.116.315.315,0,0,1-.116.431l-10.261,5.927A.313.313,0,0,1-1272.265,1505.914Z" transform="translate(5696.204 1867.996)"/>
    <path id="Tracé_47114" data-name="Tracé 47114" d="M-1344.05,1598.884a.316.316,0,0,1-.274-.158.315.315,0,0,1,.116-.431l67.181-38.787a.314.314,0,0,1,.431.116.315.315,0,0,1-.116.431l-67.181,38.786A.316.316,0,0,1-1344.05,1598.884Z" transform="translate(5722.855 1845.681)"/>
    <path id="Tracé_47115" data-name="Tracé 47115" d="M-1342.534,1604.815a.315.315,0,0,1-.273-.158.315.315,0,0,1,.115-.431l67.182-38.787a.315.315,0,0,1,.431.116.315.315,0,0,1-.115.431l-67.182,38.787A.311.311,0,0,1-1342.534,1604.815Z" transform="translate(5722.292 1843.479)"/>
    <path id="Tracé_47116" data-name="Tracé 47116" d="M-1340.764,1610.63a.315.315,0,0,1-.273-.158.315.315,0,0,1,.116-.431l67.182-38.787a.316.316,0,0,1,.431.116.315.315,0,0,1-.116.431l-67.182,38.786A.317.317,0,0,1-1340.764,1610.63Z" transform="translate(5721.635 1841.32)"/>
    <path id="Tracé_47117" data-name="Tracé 47117" d="M-1338.886,1616.424a.315.315,0,0,1-.273-.158.314.314,0,0,1,.115-.431l67.182-38.787a.315.315,0,0,1,.431.116.315.315,0,0,1-.115.431l-67.182,38.787A.311.311,0,0,1-1338.886,1616.424Z" transform="translate(5720.938 1839.169)"/>
    <path id="Tracé_47118" data-name="Tracé 47118" d="M-1336.711,1622.077a.316.316,0,0,1-.274-.158.314.314,0,0,1,.116-.431l67.182-38.787a.315.315,0,0,1,.431.116.314.314,0,0,1-.116.431l-67.182,38.787A.312.312,0,0,1-1336.711,1622.077Z" transform="translate(5720.13 1837.07)"/>
    <path id="Tracé_47119" data-name="Tracé 47119" d="M-1294.626,1627.893l23.775-13.505a2.9,2.9,0,0,1,4.325,2.517v.407a2.9,2.9,0,0,1-1.5,2.536l-23.775,13.1a2.9,2.9,0,0,1-4.292-2.55h0A2.9,2.9,0,0,1-1294.626,1627.893Z" transform="translate(5704.933 1825.433)" fill="#f49e00"/>
  </g>
</svg>
