<svg xmlns="http://www.w3.org/2000/svg" xmlns:xlink="http://www.w3.org/1999/xlink" width="149.148" height="203.373" viewBox="0 0 149.148 203.373">
  <defs>
    <clipPath id="clip-path">
      <path id="SVGID" d="M-967.99,1231.183l13.182-7.768,5.458,6.176,2.288,15.815,8.753.995,4.874-13.328-6.079-16.81-3-5.769-10.716-2.586-11.836,7.261Z" transform="translate(967.99 -1207.908)" fill="none"/>
    </clipPath>
    <clipPath id="clip-path-2">
      <path id="SVGID-2" data-name="SVGID" d="M-956.016,1225.458l8.494-5.005,7.944,1.171v16.895l4.078,10.956,9.947-5.869-.4-14.621-2.872-11.14-4.986-9.233-3.919-6.682-15.676,2.487-5.57,5.47Z" transform="translate(958.974 -1201.928)" fill="none"/>
    </clipPath>
    <clipPath id="clip-path-3">
      <path id="SVGID-3" data-name="SVGID" d="M-949.9,1220.188l8.475-4.973,8.533-.4.6,14.721,1.811,5.968,6.445,4.114,3.68-14.488-3.68-18.769-2.487-7.062-18.6-1.89-2.288,4.159-1.492,7.677Z" transform="translate(949.905 -1197.411)" fill="none"/>
    </clipPath>
  </defs>
  <g id="picto_programme" data-name="picto programme" transform="translate(970.444 -1194.199)">
    <g id="Calque_2" data-name="Calque 2" transform="translate(-970.444 1194.199)">
      <g id="Groupe_14219" data-name="Groupe 14219">
        <g id="Groupe_14210" data-name="Groupe 14210" transform="translate(5.707 3.237)">
          <path id="Tracé_47021" data-name="Tracé 47021" d="M-839.222,1196.085c3.141-1.847,5.707-.407,5.755,3.213l.141,12.611L-975.5,1295.693l-.141-12.611a12.511,12.511,0,0,1,5.584-9.9Z" transform="translate(975.644 -1195.28)" fill="#bbd2ff"/>
        </g>
        <g id="Groupe_14211" data-name="Groupe 14211" transform="translate(0.001 87.793)">
          <path id="Tracé_47022" data-name="Tracé 47022" d="M-968.682,1338.576l-6.479-3.695a2.245,2.245,0,0,1-1.135-1.928l-1.255-109.432,5.707,3.246Z" transform="translate(977.55 -1223.521)" fill="#88b5ea"/>
        </g>
        <g id="Groupe_14212" data-name="Groupe 14212" transform="translate(5.708 19.866)">
          <path id="Tracé_47023" data-name="Tracé 47023" d="M-975.644,1272.007l.141,12.611,142.176-83.784,1.123,95.713a12.532,12.532,0,0,1-5.59,9.9l-130.834,77.1c-3.132,1.838-5.707.4-5.752-3.213Z" transform="translate(975.644 -1200.834)" fill="#f3faff"/>
        </g>
        <path id="Tracé_47024" data-name="Tracé 47024" d="M-834.164,1197.672a4.306,4.306,0,0,1,.931-.21.154.154,0,0,1,.069-.012,3.563,3.563,0,0,1,.919.042c.018,0,.036.012.057.012a2.927,2.927,0,0,1,.817.3l-.033-.012-.9-.506c-.069-.039-.135-.087-.21-.126-.383-.224-.758-.437-1.144-.656l-3.443-1.958a3.182,3.182,0,0,0-.29-.132,1.706,1.706,0,0,0-.3-.1,1.469,1.469,0,0,0-.219-.048l-.03-.012c-.027,0-.051-.015-.069-.015-.117-.015-.233-.027-.344-.033h-.377a.872.872,0,0,0-.132.012c-.021,0-.042.006-.075.006-.066.009-.144.015-.221.024a3.89,3.89,0,0,0-.5.117c-.072.021-.141.048-.207.069s-.141.051-.213.081-.159.057-.24.09a5.853,5.853,0,0,0-.8.4l-130.84,77.1a7.663,7.663,0,0,0-1.054.749c-.123.093-.231.2-.341.3-.159.138-.329.275-.5.437-.066.075-.132.156-.207.23-.051.063-.126.132-.183.2s-.138.144-.216.23c-.15.186-.305.381-.455.572-.057.069-.108.153-.165.219a.205.205,0,0,1-.057.078c-.054.078-.111.15-.153.224-.114.159-.225.326-.326.494a4.89,4.89,0,0,0-.287.485c-.012.012-.03.027-.033.042l-.018.036c-.078.138-.15.269-.219.4-.087.164-.165.329-.243.494a3.533,3.533,0,0,0-.195.449l-.015.021-.021.027c-.069.168-.132.345-.2.509-.069.186-.135.365-.186.545a2.719,2.719,0,0,0-.081.284.352.352,0,0,0-.036.1c-.018.069-.039.132-.06.209-.063.207-.108.428-.153.65-.027.126-.036.257-.066.389-.009.074-.015.138-.027.212a1.642,1.642,0,0,0-.039.188,7.853,7.853,0,0,0-.063,1.117l.153,12.614,5.695,3.243-.141-12.611a7.629,7.629,0,0,1,.084-1.3,1.544,1.544,0,0,1,.036-.221,9.922,9.922,0,0,1,.275-1.243c.015-.036.03-.084.042-.117a10.436,10.436,0,0,1,.482-1.356v-.018a12.3,12.3,0,0,1,.656-1.305.48.48,0,0,1,.045-.087,13.611,13.611,0,0,1,.767-1.207.735.735,0,0,0,.1-.132c.254-.341.521-.668.79-.973.078-.078.156-.165.228-.24a7.653,7.653,0,0,1,.665-.626c.123-.111.234-.23.362-.329a9.206,9.206,0,0,1,1.057-.751l130.837-77.093a6.166,6.166,0,0,1,1.042-.494Z" transform="translate(977.55 -1194.199)" fill="#85b7ed"/>
        <path id="Tracé_47025" data-name="Tracé 47025" d="M-969.359,1283.107v56.7l110.534-63.38v-67.486l-110.534,65.535Z" transform="translate(993.885 -1164.805)" fill="#88b5ea" opacity="0.31"/>
        <path id="Tracé_47026" data-name="Tracé 47026" d="M-965.925,1339.379a3.914,3.914,0,0,1-1.973-.539,3.89,3.89,0,0,1-1.961-3.4v-58.152a6.744,6.744,0,0,1,3.291-5.776l104.492-61.954a3.768,3.768,0,0,1,3.823-.033,3.764,3.764,0,0,1,1.922,3.305v60.948a5.8,5.8,0,0,1-2.907,5.021l-104.731,60.053A3.916,3.916,0,0,1-965.925,1339.379Zm105.782-127.361a.782.782,0,0,0-.407.114l-104.492,61.951a3.754,3.754,0,0,0-1.823,3.2v58.152a.931.931,0,0,0,.467.815.938.938,0,0,0,.94,0l104.728-60.053a2.807,2.807,0,0,0,1.4-2.426V1212.83a.794.794,0,0,0-.41-.7A.848.848,0,0,0-860.143,1212.018Z" transform="translate(992.888 -1164.646)" fill="#88b5ea"/>
        <rect id="Rectangle_10269" data-name="Rectangle 10269" width="127.854" height="2.996" transform="translate(23.772 128.546) rotate(-30.168)" fill="#88b5ea"/>
        <rect id="Rectangle_10270" data-name="Rectangle 10270" width="127.852" height="2.996" transform="translate(23.772 150.752) rotate(-30.168)" fill="#88b5ea"/>
        <path id="Tracé_47027" data-name="Tracé 47027" d="M-958.716,1292.85a1.494,1.494,0,0,1-1.5-1.5v-65.248a1.5,1.5,0,0,1,1.5-1.5,1.5,1.5,0,0,1,1.5,1.5v65.248A1.5,1.5,0,0,1-958.716,1292.85Z" transform="translate(1012.123 -1133.56)" fill="#88b5ea"/>
        <path id="Tracé_47028" data-name="Tracé 47028" d="M-949.131,1287.635a1.5,1.5,0,0,1-1.5-1.5V1220.89a1.494,1.494,0,0,1,1.5-1.5,1.5,1.5,0,0,1,1.5,1.5v65.248A1.5,1.5,0,0,1-949.131,1287.635Z" transform="translate(1031.236 -1143.959)" fill="#88b5ea"/>
        <path id="Tracé_47029" data-name="Tracé 47029" d="M-940.42,1282.293a1.5,1.5,0,0,1-1.5-1.5v-65.248a1.494,1.494,0,0,1,1.5-1.5,1.5,1.5,0,0,1,1.5,1.5V1280.8A1.5,1.5,0,0,1-940.42,1282.293Z" transform="translate(1048.607 -1154.612)" fill="#88b5ea"/>
        <ellipse id="Ellipse_22" data-name="Ellipse 22" cx="2.998" cy="7.866" rx="2.998" ry="7.866" transform="translate(102.19 37.337)" fill="#1a3a7a"/>
        <ellipse id="Ellipse_23" data-name="Ellipse 23" cx="2.998" cy="7.866" rx="2.998" ry="7.866" transform="translate(101.145 37.337)" fill="#4267c5"/>
        <ellipse id="Ellipse_24" data-name="Ellipse 24" cx="2.998" cy="7.866" rx="2.998" ry="7.866" transform="translate(78.301 51.866)" fill="#1a3a7a"/>
        <ellipse id="Ellipse_25" data-name="Ellipse 25" cx="2.998" cy="7.866" rx="2.998" ry="7.866" transform="translate(77.256 51.866)" fill="#4267c5"/>
        <ellipse id="Ellipse_26" data-name="Ellipse 26" cx="2.998" cy="7.866" rx="2.998" ry="7.866" transform="translate(51.103 67.696)" fill="#1a3a7a"/>
        <ellipse id="Ellipse_27" data-name="Ellipse 27" cx="2.998" cy="7.866" rx="2.998" ry="7.866" transform="translate(50.058 67.696)" fill="#4267c5"/>
        <g id="Groupe_14214" data-name="Groupe 14214" transform="translate(28.624 41.047)">
          <g id="Groupe_14213" data-name="Groupe 14213" clip-path="url(#clip-path)">
            <path id="Tracé_47030" data-name="Tracé 47030" d="M-945.888,1243.533a1.488,1.488,0,0,1-.584-.12,1.5,1.5,0,0,1-.793-1.961,30.663,30.663,0,0,0,2.168-11.683c0-9.937-4.207-18.336-9.186-18.336s-9.189,8.4-9.189,18.336a1.5,1.5,0,0,1-1.5,1.5,1.494,1.494,0,0,1-1.5-1.5c0-11.961,5.35-21.33,12.183-21.33s12.18,9.369,12.18,21.33a33.191,33.191,0,0,1-2.4,12.851A1.5,1.5,0,0,1-945.888,1243.533Z" transform="translate(971.029 -1206.85)" fill="#e0f1fc"/>
          </g>
        </g>
        <g id="Groupe_14216" data-name="Groupe 14216" transform="translate(55.62 23.143)">
          <g id="Groupe_14215" data-name="Groupe 14215" clip-path="url(#clip-path-2)">
            <path id="Tracé_47031" data-name="Tracé 47031" d="M-936.8,1238.246a1.5,1.5,0,0,1-.584-.12,1.5,1.5,0,0,1-.794-1.961,30.671,30.671,0,0,0,2.168-11.683c0-9.937-4.207-18.336-9.189-18.336s-9.189,8.4-9.189,18.336a1.494,1.494,0,0,1-1.5,1.5,1.5,1.5,0,0,1-1.5-1.5c0-11.961,5.35-21.33,12.183-21.33s12.183,9.369,12.183,21.33a33.272,33.272,0,0,1-2.4,12.851A1.5,1.5,0,0,1-936.8,1238.246Z" transform="translate(962.147 -1199.489)" fill="#e0f1fc"/>
          </g>
        </g>
        <g id="Groupe_14218" data-name="Groupe 14218" transform="translate(82.774 9.616)">
          <g id="Groupe_14217" data-name="Groupe 14217" clip-path="url(#clip-path-3)">
            <path id="Tracé_47032" data-name="Tracé 47032" d="M-928.823,1233.394a1.451,1.451,0,0,1-.587-.123,1.5,1.5,0,0,1-.794-1.961,30.575,30.575,0,0,0,2.171-11.68c0-9.94-4.207-18.336-9.189-18.336s-9.189,8.4-9.189,18.336a1.5,1.5,0,0,1-1.5,1.5,1.5,1.5,0,0,1-1.5-1.5c0-11.961,5.35-21.33,12.183-21.33s12.183,9.368,12.183,21.33a33.2,33.2,0,0,1-2.407,12.851A1.5,1.5,0,0,1-928.823,1233.394Z" transform="translate(950.904 -1195.637)" fill="#e0f1fc"/>
          </g>
        </g>
      </g>
    </g>
  </g>
</svg>
