<svg id="open-email" xmlns="http://www.w3.org/2000/svg" width="40.711" height="40.715" viewBox="0 0 40.711 40.715">
  <path id="Tracé_14362" data-name="Tracé 14362" d="M339.453,366.535a.6.6,0,0,0,.387-1.07l-9.64-8.027a.6.6,0,1,0-.774.93l9.64,8.027A.6.6,0,0,0,339.453,366.535Z" transform="translate(-303.029 -328.886)" fill="#fd9926"/>
  <path id="Tracé_14363" data-name="Tracé 14363" d="M56.16,357.442l-9.64,8.027a.6.6,0,1,0,.774.93l9.64-8.027a.6.6,0,0,0-.774-.93Z" transform="translate(-42.62 -328.89)" fill="#fd9926"/>
  <path id="Tracé_14364" data-name="Tracé 14364" d="M40.711,14.907a.6.6,0,0,0-.218-.464L36.235,10.9V7.017a5,5,0,0,0-4.99-4.99H25.581L25.309,1.8a7.739,7.739,0,0,0-9.908,0l-.272.227H13.907a.6.6,0,0,0,0,1.21h17.34a3.785,3.785,0,0,1,3.78,3.78v4.161h0v7.171L24.535,27.084a6.531,6.531,0,0,1-8.361,0L5.685,18.349V11.178h0V7.017a3.785,3.785,0,0,1,3.781-3.78h2.021a.6.6,0,1,0,0-1.21H9.466a5,5,0,0,0-4.991,4.99V10.9L.218,14.442A.6.6,0,0,0,0,14.9s0,0,0,0V36.325a4.4,4.4,0,0,0,4.4,4.4H31.48a.6.6,0,0,0,0-1.209H4.4a3.191,3.191,0,0,1-3.188-3.188V16.2l3.485,2.9h0L15.4,28.013a7.739,7.739,0,0,0,9.907,0l10.7-8.912,0,0L39.5,16.2V36.325a3.192,3.192,0,0,1-3.188,3.188H33.9a.6.6,0,0,0,0,1.21h2.414a4.4,4.4,0,0,0,4.4-4.4V14.911A.006.006,0,0,0,40.711,14.907ZM23.506,2.027h-6.3A6.536,6.536,0,0,1,23.506,2.027ZM4.475,12.471v4.871L1.55,14.907Zm31.76,4.871V12.471l2.926,2.436Z" transform="translate(0 -0.007)" fill="#fd9926"/>
  <path id="Tracé_14365" data-name="Tracé 14365" d="M155.2,210.62H137.465a.6.6,0,1,0,0,1.21H155.2a.6.6,0,1,0,0-1.21Z" transform="translate(-125.977 -193.872)" fill="#fd9926"/>
  <path id="Tracé_14366" data-name="Tracé 14366" d="M155.2,254.78H137.465a.6.6,0,1,0,0,1.21H155.2a.6.6,0,1,0,0-1.21Z" transform="translate(-125.977 -234.52)" fill="#fd9926"/>
  <path id="Tracé_14367" data-name="Tracé 14367" d="M155.2,122.31H137.465a.6.6,0,1,0,0,1.21H155.2a.6.6,0,1,0,0-1.21Z" transform="translate(-125.977 -112.584)" fill="#fd9926"/>
  <path id="Tracé_14368" data-name="Tracé 14368" d="M309.178,166.47h-4.433a.6.6,0,0,0,0,1.209h4.433a.6.6,0,1,0,0-1.209Z" transform="translate(-279.955 -153.233)" fill="#fd9926"/>
  <path id="Tracé_14369" data-name="Tracé 14369" d="M137.465,167.679h11.286a.6.6,0,1,0,0-1.209H137.465a.6.6,0,1,0,0,1.209Z" transform="translate(-125.977 -153.233)" fill="#fd9926"/>
</svg>
