<svg xmlns="http://www.w3.org/2000/svg" width="188.933" height="201" viewBox="0 0 188.933 201">
  <g id="registration" transform="translate(-15.368 0)">
    <path id="Tracé_15925" data-name="Tracé 15925" d="M157.955,0h-118a9.88,9.88,0,0,0-9.869,9.869v3.757H25.237a9.88,9.88,0,0,0-9.869,9.869V149.636a2.944,2.944,0,0,0,5.889,0V23.495a3.985,3.985,0,0,1,3.98-3.98h118a3.985,3.985,0,0,1,3.98,3.98V191.131a3.985,3.985,0,0,1-3.98,3.98h-118a3.985,3.985,0,0,1-3.98-3.98V163.377a2.944,2.944,0,0,0-5.889,0v27.754A9.88,9.88,0,0,0,25.237,201h118a9.88,9.88,0,0,0,9.869-9.869v-3.757h4.846a9.88,9.88,0,0,0,9.869-9.869V47.3a2.944,2.944,0,1,0-5.889,0V177.5a3.985,3.985,0,0,1-3.98,3.98H154.2V23.495a9.88,9.88,0,0,0-9.869-9.869H35.972V9.869a3.985,3.985,0,0,1,3.98-3.98h118a3.985,3.985,0,0,1,3.98,3.98V33.561a2.944,2.944,0,0,0,5.889,0V9.869A9.88,9.88,0,0,0,157.955,0Z" fill="#91BD0F"/>
    <path id="Tracé_15926" data-name="Tracé 15926" d="M445.138,148.8H429.429a6.648,6.648,0,0,0-6.64,6.64v83.581c0,.057.005.112.009.168,0,.031,0,.061,0,.092a2.943,2.943,0,0,0,.143.679c.008.023.017.046.025.068q.05.135.111.265c.007.014.011.029.018.042l9.661,19.356a4.9,4.9,0,0,0,9.046,0l9.661-19.357c.009-.017.014-.035.022-.052.038-.08.072-.161.1-.245.011-.029.022-.057.031-.085a2.911,2.911,0,0,0,.086-.31c0-.007,0-.014.006-.022a2.9,2.9,0,0,0,.048-.335c0-.038,0-.077.006-.115s.007-.1.007-.151V155.436A6.648,6.648,0,0,0,445.138,148.8Zm-7.854,106.769-6.79-13.6h13.58Zm8.606-19.492H428.678V173.111h17.211Zm0-68.851H428.678V155.436a.753.753,0,0,1,.752-.752h15.708a.753.753,0,0,1,.752.752v11.786Z" transform="translate(-247.477 -90.382)" fill="#91BD0F"/>
    <path id="Tracé_15927" data-name="Tracé 15927" d="M58.218,413.534a6.092,6.092,0,0,0,6.085,6.085H80.529a6.092,6.092,0,0,0,6.085-6.085V398.029l6.717-7.146a2.944,2.944,0,0,0-4.291-4.033l-5.1,5.424a6.048,6.048,0,0,0-3.413-1.051H64.3a6.092,6.092,0,0,0-6.085,6.085Zm22.508-9.241v9.241a.2.2,0,0,1-.2.2H71.8a2.943,2.943,0,0,0,.33-.3Zm-16.619-6.986a.2.2,0,0,1,.2-.2H79.395L70.4,406.679l-5.277-8.041a2.929,2.929,0,0,0-1.017-.949v-.382Zm0,10.514c3.728,5.681,3.549,5.5,4.064,5.909H64.3a.2.2,0,0,1-.2-.2Z" transform="translate(-26.028 -234.418)" fill="#91BD0F"/>
    <path id="Tracé_15928" data-name="Tracé 15928" d="M214.287,428.091h-62.55a2.944,2.944,0,1,0,0,5.889h62.55a2.944,2.944,0,1,0,0-5.889Z" transform="translate(-81.045 -260.032)" fill="#91BD0F"/>
    <path id="Tracé_15929" data-name="Tracé 15929" d="M65.088,140.888h52.2a6.878,6.878,0,0,0,6.87-6.87v-52.2a6.878,6.878,0,0,0-6.87-6.87h-52.2a6.878,6.878,0,0,0-6.87,6.87v52.2A6.878,6.878,0,0,0,65.088,140.888Zm-.981-59.067a.983.983,0,0,1,.981-.981h52.2a.983.983,0,0,1,.981.981v52.2a.983.983,0,0,1-.981.981h-52.2a.983.983,0,0,1-.981-.981Z" transform="translate(-26.028 -45.527)" fill="#91BD0F"/>
    <path id="Tracé_15930" data-name="Tracé 15930" d="M108.45,146.691a2.948,2.948,0,0,0,2.948-2.94v-6.36a8.548,8.548,0,0,1,8.478-8.518h.073a8.548,8.548,0,0,1,8.479,8.518v3.415h-6.238a2.944,2.944,0,1,0,0,5.889s.008,0,.008,0h9.175a2.941,2.941,0,0,0,2.944-2.94V137.39A14.308,14.308,0,0,0,130.1,127.2a14.574,14.574,0,0,0-1.63-1.407,13.453,13.453,0,1,0-17.109,0,14.593,14.593,0,0,0-1.632,1.407,14.306,14.306,0,0,0-4.216,10.187v6.359a2.935,2.935,0,0,0,2.94,2.94Zm11.462-38.835a7.564,7.564,0,0,1,.026,15.128h-.051a7.564,7.564,0,0,1,.025-15.128Z" transform="translate(-54.754 -61.937)" fill="#91BD0F"/>
    <path id="Tracé_15931" data-name="Tracé 15931" d="M244.781,117.456H270.8a2.944,2.944,0,0,0,0-5.889H244.781a2.944,2.944,0,0,0,0,5.889Z" transform="translate(-137.562 -67.768)" fill="#91BD0F"/>
    <path id="Tracé_15932" data-name="Tracé 15932" d="M244.781,159.977H270.8a2.944,2.944,0,1,0,0-5.889H244.781a2.944,2.944,0,1,0,0,5.889Z" transform="translate(-137.562 -93.597)" fill="#91BD0F"/>
    <path id="Tracé_15933" data-name="Tracé 15933" d="M244.781,205.33H270.8a2.944,2.944,0,0,0,0-5.889H244.781a2.944,2.944,0,1,0,0,5.889Z" transform="translate(-137.562 -121.145)" fill="#91BD0F"/>
    <path id="Tracé_15934" data-name="Tracé 15934" d="M61.162,277.754H159.27a2.944,2.944,0,1,0,0-5.889H61.162a2.944,2.944,0,1,0,0,5.889Z" transform="translate(-26.028 -165.137)" fill="#91BD0F"/>
    <path id="Tracé_15935" data-name="Tracé 15935" d="M61.162,320.274H159.27a2.944,2.944,0,0,0,0-5.889H61.162a2.944,2.944,0,1,0,0,5.889Z" transform="translate(-26.028 -190.965)" fill="#91BD0F"/>
    <path id="Tracé_15936" data-name="Tracé 15936" d="M61.162,362.794H159.27a2.944,2.944,0,0,0,0-5.889H61.162a2.944,2.944,0,0,0,0,5.889Z" transform="translate(-26.028 -216.792)" fill="#91BD0F"/>
  </g>
</svg>
