<svg xmlns="http://www.w3.org/2000/svg" width="201.006" height="201" viewBox="0 0 201.006 201">
  <g id="search" transform="translate(0 -0.007)">
    <g id="Groupe_13538" data-name="Groupe 13538" transform="translate(0 0.007)">
      <g id="Groupe_13537" data-name="Groupe 13537">
        <path id="Tracé_46002" data-name="Tracé 46002" d="M258.389,85.961h0a30.173,30.173,0,0,0-36.523,29.493,10.049,10.049,0,1,0,20.1,0,10.07,10.07,0,0,1,12.325-9.811,9.844,9.844,0,0,1,7.533,7.538,10.2,10.2,0,0,1-1.57,8.031,10.076,10.076,0,0,1-6.779,4.191,13.449,13.449,0,0,0-11.509,13.24v10.315a10.05,10.05,0,0,0,20.1,0v-5.074a30.162,30.162,0,0,0-3.675-57.922ZM271.226,128.9h0a23.52,23.52,0,0,1-13.351,9.268,3.347,3.347,0,0,0-2.511,3.242v7.547a3.35,3.35,0,1,1-6.7,0V138.642a6.712,6.712,0,0,1,5.758-6.605,16.764,16.764,0,0,0,1.235-32.954,17.85,17.85,0,0,0-3.687-.389,16.5,16.5,0,0,0-10.513,3.749,16.709,16.709,0,0,0-6.193,13.011,3.349,3.349,0,1,1-6.7,0,23.455,23.455,0,1,1,42.66,13.446Z" transform="translate(-134.766 -51.807)" fill="#09519a"/>
        <path id="Tracé_46003" data-name="Tracé 46003" d="M283.116,290.14a10.05,10.05,0,1,0,10.05,10.05A10.05,10.05,0,0,0,283.116,290.14Zm0,13.4a3.35,3.35,0,1,1,3.35-3.35A3.35,3.35,0,0,1,283.116,303.54Z" transform="translate(-165.866 -176.24)" fill="#09519a"/>
        <path id="Tracé_46004" data-name="Tracé 46004" d="M196.507,56.679A83.74,83.74,0,1,0,47.406,129.9L33.512,143.8l0,0,0,0L21.652,155.656h0v0L4.9,172.408a16.758,16.758,0,0,0,23.7,23.7l16.748-16.749h0v0L57.2,167.5l0,0,0,0L71.1,153.6a83.734,83.734,0,0,0,125.4-96.921ZM23.862,191.37a10.322,10.322,0,0,1-14.224,0,10.074,10.074,0,0,1,0-14.224l14.382-14.381,14.224,14.224ZM42.98,172.251,28.756,158.027l7.122-7.122L50.1,165.128Zm11.859-11.859L40.616,146.168,51.387,135.4A84.452,84.452,0,0,0,65.61,149.619Zm62.411.416a77.05,77.05,0,1,1,77.05-77.05A77.051,77.051,0,0,1,117.25,160.807Z" transform="translate(0 -0.007)" fill="#09519a"/>
        <path id="Tracé_46005" data-name="Tracé 46005" d="M189.816,34.14a70.35,70.35,0,1,0,70.35,70.35A70.35,70.35,0,0,0,189.816,34.14Zm0,134a63.65,63.65,0,1,1,63.65-63.65A63.65,63.65,0,0,1,189.816,168.14Z" transform="translate(-72.566 -20.74)" fill="#09519a"/>
      </g>
    </g>
  </g>
</svg>
