<svg xmlns="http://www.w3.org/2000/svg" width="246.729" height="240.264" viewBox="0 0 246.729 240.264">
  <g id="Groupe_10342" data-name="Groupe 10342" transform="translate(-123 -1291.736)">
    <g id="online-class" transform="translate(123 1291.736)">
      <path id="Tracé_17404" data-name="Tracé 17404" d="M75.662,14.078A3.521,3.521,0,1,0,79.276,17.6,3.568,3.568,0,0,0,75.662,14.078Zm14.457,0A3.521,3.521,0,1,0,93.733,17.6,3.568,3.568,0,0,0,90.119,14.078Zm-28.913,0A3.521,3.521,0,1,0,64.819,17.6,3.568,3.568,0,0,0,61.205,14.078Zm170.677,0H203.594V9.151A9.287,9.287,0,0,0,194.2,0H52.531a9.287,9.287,0,0,0-9.4,9.151V20.2H18.071A17.859,17.859,0,0,0,0,37.795v132.53a17.859,17.859,0,0,0,18.071,17.6h84.516l-2.753,19.923H95.807a7.464,7.464,0,0,0-7.2,5.329l-5.09,17.872a7.067,7.067,0,0,0,1.251,6.347,7.483,7.483,0,0,0,5.946,2.871h65.294a7.482,7.482,0,0,0,5.946-2.871,7.069,7.069,0,0,0,1.252-6.346l-5.09-17.872a7.463,7.463,0,0,0-7.2-5.33h-4.027l-2.753-19.923h84.516a17.859,17.859,0,0,0,18.071-17.6V28.535a14.672,14.672,0,0,0-14.846-14.457ZM50.362,35.195h58.545a3.521,3.521,0,1,0,0-7.039H50.362V9.151a2.143,2.143,0,0,1,2.169-2.112H194.2a2.143,2.143,0,0,1,2.169,2.112v4.927H172.542a14.681,14.681,0,0,0-14.836,14.078H125.774a3.521,3.521,0,1,0,0,7.039H157.7V53.467a14.671,14.671,0,0,0,14.846,14.457H179.7v6.753a4.964,4.964,0,0,0,3.155,4.6,5.209,5.209,0,0,0,5.572-1.079l7.936-7.728V125.4a3.615,3.615,0,0,0,7.228,0V67.923h21.449v91.843H203.594v-17.94a3.615,3.615,0,0,0-7.228,0v17.94H167.987V138.95a22.914,22.914,0,0,0-14.993-21.431l-9.764-3.741a6.278,6.278,0,0,1-4.108-5.871V103.93a24.81,24.81,0,0,0,9.984-19.8V57.849a15.013,15.013,0,0,0-15.191-14.793h-21.1A15.013,15.013,0,0,0,97.624,57.849v26.28a24.81,24.81,0,0,0,9.984,19.8v3.978a6.278,6.278,0,0,1-4.109,5.871l-9.762,3.74A22.914,22.914,0,0,0,78.743,138.95v20.817H50.363Zm92.326,111.319a3.568,3.568,0,0,0-3.614,3.519v9.733H107.655v-9.733a3.615,3.615,0,0,0-7.228,0v9.733H85.969V138.95a15.909,15.909,0,0,1,10.411-14.88l8.89-3.406a26.355,26.355,0,0,0,36.185,0l8.891,3.406a15.91,15.91,0,0,1,10.411,14.88v20.817H146.3v-9.733A3.567,3.567,0,0,0,142.688,146.514ZM107.559,78.767A45.1,45.1,0,0,0,122.365,76.3a43.956,43.956,0,0,0,7.837-3.63,17.555,17.555,0,0,0,5.522,4.073,17.944,17.944,0,0,0,6.154,1.635V84.13a18.52,18.52,0,0,1-37.027,0V78.681c.9.052,1.806.086,2.707.086Zm-2.708-7.136V57.849a7.869,7.869,0,0,1,7.962-7.754h21.1a7.869,7.869,0,0,1,7.962,7.754V71.3a10.419,10.419,0,0,1-7.232-4.527,4.593,4.593,0,0,0-2.932-1.931,4.714,4.714,0,0,0-3.483.7,36.7,36.7,0,0,1-8.3,4.136A38.009,38.009,0,0,1,104.851,71.631Zm30.384,45.02a19,19,0,0,1-23.742,0,13.083,13.083,0,0,0,3.341-8.742v-.132a26.319,26.319,0,0,0,17.059,0v.132A13.083,13.083,0,0,0,135.235,116.65Zm15.687,98.234a.24.24,0,0,1,.232.171h0l5.09,17.872c.046.114-.107.31-.232.3H90.717c-.126.013-.28-.182-.232-.3l5.09-17.873a.241.241,0,0,1,.232-.171h55.114Zm-43.794-7.039,2.753-19.923h26.968l2.753,19.923ZM239.5,170.325a10.715,10.715,0,0,1-10.843,10.558H18.071A10.715,10.715,0,0,1,7.228,170.325V37.795A10.716,10.716,0,0,1,18.071,27.236H43.134v7.039H20a5.477,5.477,0,0,0-5.542,5.4V161.409a5.477,5.477,0,0,0,5.542,5.4H226.73a5.477,5.477,0,0,0,5.542-5.4V67.914A15.043,15.043,0,0,0,239.5,65.87ZM43.134,41.314V159.766H21.685V41.314ZM239.5,53.467a7.528,7.528,0,0,1-7.618,7.418H198.567a6.277,6.277,0,0,0-4.408,1.779L186.932,69.7V66.956a6.162,6.162,0,0,0-6.235-6.071h-8.155a7.528,7.528,0,0,1-7.617-7.418V28.535a7.528,7.528,0,0,1,7.617-7.418h59.341a7.527,7.527,0,0,1,7.617,7.417ZM226.762,44.52h-49.1a3.521,3.521,0,1,0,0,7.039h49.1a3.521,3.521,0,1,0,0-7.039Zm0-14.078h-49.1a3.521,3.521,0,1,0,0,7.039h49.1a3.521,3.521,0,1,0,0-7.039Z" transform="translate(0)" fill="#7A8E00"/>
    </g>
  </g>
</svg>
