<svg id="calendar" xmlns="http://www.w3.org/2000/svg" width="268.438" height="242.46" viewBox="0 0 268.438 242.46">
  <path id="Tracé_31705" data-name="Tracé 31705" d="M249.557,16.824h-59.2V5.245a5.245,5.245,0,0,0-10.49,0V16.824H156.8V5.245a5.245,5.245,0,0,0-10.49,0V16.824H123.239V5.245a5.244,5.244,0,1,0-10.488,0V16.824H89.683V5.245a5.245,5.245,0,0,0-10.49,0V16.824H18.881A18.9,18.9,0,0,0,0,35.705V223.58A18.9,18.9,0,0,0,18.881,242.46H249.557a18.9,18.9,0,0,0,18.881-18.881V35.705A18.9,18.9,0,0,0,249.557,16.824Zm8.391,206.755a8.4,8.4,0,0,1-8.391,8.391H18.881a8.4,8.4,0,0,1-8.391-8.391V81.908H215.775a5.245,5.245,0,0,0,0-10.49H10.49V35.705a8.4,8.4,0,0,1,8.391-8.391H79.193V39.381a5.245,5.245,0,1,0,10.49,0V27.314h23.069V39.381a5.244,5.244,0,1,0,10.488,0V27.314h23.069V39.381a5.245,5.245,0,0,0,10.49,0V27.314h23.067V39.381a5.245,5.245,0,0,0,10.49,0V27.314h59.2a8.4,8.4,0,0,1,8.391,8.391Zm0,0" fill="#ffff"/>
  <path id="Tracé_31706" data-name="Tracé 31706" d="M253.626,176.684H57.215A13.126,13.126,0,0,0,44.1,189.795v66.579a5.073,5.073,0,0,0,0,1.925v33.407a13.126,13.126,0,0,0,13.111,13.111H253.626a13.126,13.126,0,0,0,13.111-13.111V189.795A13.125,13.125,0,0,0,253.626,176.684ZM54.594,227.3h44.09v24.789H54.594Zm54.58,0h40.737v24.789H109.173Zm40.737-10.49H109.173V187.174h40.737Zm10.49-29.639h42.042v29.639H160.4Zm-10.49,75.406v31.748H109.173V262.579Zm10.49,0h42.042v31.748H160.4Zm0-10.488V227.3h42.042v24.791ZM212.93,227.3h43.32v24.789H212.93Zm43.32-37.507v27.017H212.93V187.174h40.7A2.626,2.626,0,0,1,256.25,189.795ZM57.215,187.174H98.684v29.639H54.594V189.795A2.624,2.624,0,0,1,57.215,187.174ZM54.594,291.706V262.581h44.09v31.746H57.215A2.625,2.625,0,0,1,54.594,291.706Zm199.032,2.621h-40.7V262.581h43.32v29.125A2.627,2.627,0,0,1,253.626,294.328Zm0,0" transform="translate(-20.937 -84.05)" fill="#ffff"/>
  <path id="Tracé_31707" data-name="Tracé 31707" d="M396.807,227.006h5.4a5.245,5.245,0,0,0,0-10.49h-5.4a5.245,5.245,0,1,0,0,10.49Zm0,0" transform="translate(-186.269 -102.998)" fill="#ffff"/>
  <path id="Tracé_31708" data-name="Tracé 31708" d="M444.514,146.854a5.245,5.245,0,0,0,5.245-5.245v-.145a5.245,5.245,0,0,0-10.49,0v.145A5.246,5.246,0,0,0,444.514,146.854Zm0,0" transform="translate(-208.964 -64.8)" fill="#ffff"/>
</svg>
