<svg xmlns="http://www.w3.org/2000/svg" width="196.924" height="191.764" viewBox="0 0 196.924 191.764">
  <g id="online-class" transform="translate(0)">
    <path id="Tracé_17404" data-name="Tracé 17404" d="M60.389,11.236a2.81,2.81,0,1,0,2.885,2.809A2.848,2.848,0,0,0,60.389,11.236Zm11.538,0a2.81,2.81,0,1,0,2.885,2.809A2.848,2.848,0,0,0,71.927,11.236Zm-23.077,0a2.81,2.81,0,1,0,2.885,2.809A2.848,2.848,0,0,0,48.85,11.236Zm136.224,0H162.5V7.3A7.412,7.412,0,0,0,155,0H41.927a7.412,7.412,0,0,0-7.5,7.3V16.12h-20A14.254,14.254,0,0,0,0,30.165V135.943a14.254,14.254,0,0,0,14.423,14.045H81.879l-2.2,15.9H76.468a5.957,5.957,0,0,0-5.745,4.254L66.66,184.407a5.64,5.64,0,0,0,1,5.066,5.972,5.972,0,0,0,4.746,2.291h52.114a5.972,5.972,0,0,0,4.746-2.291,5.642,5.642,0,0,0,1-5.065L126.2,170.144a5.956,5.956,0,0,0-5.745-4.254h-3.214l-2.2-15.9H182.5a14.254,14.254,0,0,0,14.423-14.045V22.775a11.71,11.71,0,0,0-11.849-11.538ZM40.2,28.09H86.923a2.81,2.81,0,1,0,0-5.618H40.2V7.3a1.711,1.711,0,0,1,1.731-1.685H155A1.711,1.711,0,0,1,156.727,7.3v3.933H137.713a11.717,11.717,0,0,0-11.841,11.236H100.385a2.81,2.81,0,1,0,0,5.618h25.479V42.674a11.71,11.71,0,0,0,11.849,11.538h5.716V59.6a3.962,3.962,0,0,0,2.518,3.67,4.157,4.157,0,0,0,4.447-.861l6.334-6.168v43.844a2.886,2.886,0,0,0,5.769,0V54.212h17.119v73.3H162.5V113.2a2.886,2.886,0,0,0-5.769,0v14.318h-22.65V110.9a18.288,18.288,0,0,0-11.967-17.1l-7.793-2.985a5.01,5.01,0,0,1-3.278-4.685V82.95a19.8,19.8,0,0,0,7.968-15.8V46.172a11.982,11.982,0,0,0-12.124-11.807H90.041A11.982,11.982,0,0,0,77.917,46.172V67.147a19.8,19.8,0,0,0,7.968,15.8v3.175a5.011,5.011,0,0,1-3.279,4.685L74.815,93.8A18.289,18.289,0,0,0,62.847,110.9v16.615H40.2Zm73.689,88.848A2.847,2.847,0,0,0,111,119.748v7.768H85.923v-7.768a2.886,2.886,0,0,0-5.769,0v7.768H68.616V110.9a12.7,12.7,0,0,1,8.31-11.877l7.1-2.718a21.035,21.035,0,0,0,28.881,0l7.1,2.718a12.7,12.7,0,0,1,8.309,11.877v16.615H116.769v-7.768a2.847,2.847,0,0,0-2.884-2.809ZM85.847,62.867A35.992,35.992,0,0,0,97.664,60.9a35.082,35.082,0,0,0,6.255-2.9,14.011,14.011,0,0,0,4.407,3.251,14.322,14.322,0,0,0,4.912,1.3v4.591a14.781,14.781,0,0,1-29.552,0V62.8c.721.042,1.442.069,2.161.069Zm-2.161-5.7v-11a6.28,6.28,0,0,1,6.355-6.189h16.842a6.281,6.281,0,0,1,6.355,6.189V56.906a8.316,8.316,0,0,1-5.772-3.614,3.666,3.666,0,0,0-2.34-1.541,3.763,3.763,0,0,0-2.78.556,29.289,29.289,0,0,1-6.624,3.3A30.337,30.337,0,0,1,83.686,57.171ZM107.936,93.1a15.162,15.162,0,0,1-18.949,0,10.442,10.442,0,0,0,2.667-6.977v-.105a21.006,21.006,0,0,0,13.615,0v.105A10.442,10.442,0,0,0,107.936,93.1Zm12.52,78.4a.191.191,0,0,1,.185.137h0l4.063,14.265c.037.091-.085.248-.185.237H72.4c-.1.01-.223-.145-.185-.237l4.063-14.265a.192.192,0,0,1,.185-.137h43.989ZM85.5,165.889l2.2-15.9h21.524l2.2,15.9Zm105.652-29.946a8.552,8.552,0,0,1-8.654,8.427H14.423a8.552,8.552,0,0,1-8.654-8.427V30.165a8.552,8.552,0,0,1,8.654-8.427h20v5.618H15.962a4.371,4.371,0,0,0-4.423,4.307v97.163a4.371,4.371,0,0,0,4.423,4.307h165a4.371,4.371,0,0,0,4.423-4.307V54.2a12.007,12.007,0,0,0,5.769-1.631ZM34.427,32.974v94.541H17.308V32.974Zm156.727,9.7a6.008,6.008,0,0,1-6.08,5.92h-26.59a5.01,5.01,0,0,0-3.518,1.42L149.2,55.631V53.44a4.918,4.918,0,0,0-4.976-4.846h-6.509a6.008,6.008,0,0,1-6.08-5.92v-19.9a6.008,6.008,0,0,1,6.08-5.92h47.362a6.008,6.008,0,0,1,6.08,5.92Zm-10.167-7.141H141.8a2.81,2.81,0,1,0,0,5.618h39.188a2.81,2.81,0,1,0,0-5.618Zm0-11.236H141.8a2.81,2.81,0,1,0,0,5.618h39.188a2.81,2.81,0,1,0,0-5.618Z" transform="translate(0)" fill="#91BD0F"/>
  </g>
</svg>
